M48
; DRILL file {KiCad 8.0.0} date 2024-03-01T09:31:18-0500
; FORMAT={-:-/ absolute / metric / decimal}
; #@! TF.CreationDate,2024-03-01T09:31:18-05:00
; #@! TF.GenerationSoftware,Kicad,Pcbnew,8.0.0
; #@! TF.FileFunction,Plated,1,4,PTH
FMAT,2
METRIC
; #@! TA.AperFunction,Plated,PTH,ViaDrill
T1C0.300
; #@! TA.AperFunction,Plated,PTH,ComponentDrill
T2C0.800
; #@! TA.AperFunction,Plated,PTH,ComponentDrill
T3C1.000
%
G90
G05
T1
X43.741Y-78.749
X44.664Y-111.154
X45.262Y-81.483
X49.948Y-130.58
X50.715Y-110.208
X53.67Y-117.996
X55.18Y-71.454
X57.362Y-71.234
X61.514Y-115.691
T2
X46.0Y-114.25
X46.0Y-116.75
X46.93Y-58.625
X46.93Y-61.125
X51.54Y-65.22
X51.54Y-72.84
X52.4Y-106.64
X52.4Y-109.18
X52.4Y-111.72
X52.4Y-114.26
X52.4Y-116.8
X52.4Y-119.34
X52.4Y-121.88
X52.4Y-124.42
X52.4Y-126.96
X54.08Y-65.22
X54.08Y-72.84
X54.75Y-97.0
X54.94Y-104.1
X54.94Y-106.64
X54.94Y-109.18
X54.94Y-111.72
X54.94Y-114.26
X54.94Y-116.8
X54.94Y-119.34
X54.94Y-121.88
X54.94Y-124.42
X54.94Y-126.96
X54.94Y-129.5
X55.25Y-136.0
X56.62Y-65.22
X56.62Y-72.84
X57.25Y-97.0
X57.48Y-104.1
X57.48Y-106.64
X57.48Y-126.96
X57.48Y-129.5
X57.75Y-136.0
X59.16Y-65.22
X59.16Y-72.84
X60.02Y-104.1
X60.02Y-106.64
X60.02Y-126.96
X60.02Y-129.5
X61.7Y-65.22
X61.7Y-72.84
X62.56Y-104.1
X62.56Y-106.64
X62.56Y-126.96
X62.56Y-129.5
X63.0Y-83.42
X63.0Y-93.58
X64.24Y-65.22
X64.24Y-72.84
X65.1Y-104.1
X65.1Y-106.64
X65.1Y-126.96
X65.1Y-129.5
X66.78Y-65.22
X66.78Y-72.84
X67.64Y-104.1
X67.64Y-106.64
X67.64Y-126.96
X67.64Y-129.5
X69.32Y-65.22
X69.32Y-72.84
X70.18Y-104.1
X70.18Y-106.64
X70.18Y-126.96
X70.18Y-129.5
X71.86Y-65.22
X71.86Y-72.84
X72.72Y-104.1
X72.72Y-106.64
X72.72Y-126.96
X72.72Y-129.5
X74.4Y-65.22
X74.4Y-72.84
X75.25Y-97.5
X75.26Y-104.1
X75.26Y-106.64
X75.26Y-109.18
X75.26Y-111.72
X75.26Y-114.26
X75.26Y-116.8
X75.26Y-119.34
X75.26Y-121.88
X75.26Y-124.42
X75.26Y-126.96
X75.26Y-129.5
X75.52Y-77.5
X76.94Y-65.22
X76.94Y-72.84
X77.75Y-97.5
X77.8Y-106.64
X77.8Y-109.18
X77.8Y-111.72
X77.8Y-114.26
X77.8Y-116.8
X77.8Y-119.34
X77.8Y-121.88
X77.8Y-124.42
X77.8Y-126.96
X78.02Y-77.5
X79.48Y-65.22
X79.48Y-72.84
X84.0Y-67.75
X84.0Y-70.25
X84.5Y-113.75
X84.5Y-116.25
X84.5Y-119.25
X84.5Y-121.75
X84.5Y-124.75
X84.5Y-127.25
T3
X38.5Y-60.3
X38.5Y-62.84
X38.5Y-65.38
X38.5Y-67.92
X38.5Y-70.46
X38.5Y-73.0
X38.5Y-75.54
X38.5Y-78.08
X38.5Y-80.62
X38.5Y-83.16
X38.5Y-85.7
X38.5Y-88.24
X38.5Y-90.78
X38.5Y-93.32
X38.5Y-95.86
X38.5Y-98.4
X38.5Y-100.94
X38.5Y-103.48
X38.5Y-106.02
X38.5Y-108.56
X38.5Y-111.1
X38.5Y-113.64
X38.5Y-116.18
X38.5Y-118.72
X38.5Y-121.26
X38.5Y-123.8
X38.5Y-126.34
X38.5Y-128.88
X38.5Y-131.42
X38.5Y-133.96
X38.5Y-136.5
X38.5Y-139.04
X41.04Y-60.3
X41.04Y-62.84
X41.04Y-65.38
X41.04Y-67.92
X41.04Y-70.46
X41.04Y-73.0
X41.04Y-75.54
X41.04Y-78.08
X41.04Y-80.62
X41.04Y-83.16
X41.04Y-85.7
X41.04Y-88.24
X41.04Y-90.78
X41.04Y-93.32
X41.04Y-95.86
X41.04Y-98.4
X41.04Y-100.94
X41.04Y-103.48
X41.04Y-106.02
X41.04Y-108.56
X41.04Y-111.1
X41.04Y-113.64
X41.04Y-116.18
X41.04Y-118.72
X41.04Y-121.26
X41.04Y-123.8
X41.04Y-126.34
X41.04Y-128.88
X41.04Y-131.42
X41.04Y-133.96
X41.04Y-136.5
X41.04Y-139.04
X55.02Y-85.783
X55.02Y-88.323
X55.02Y-90.863
X70.21Y-83.19
X70.21Y-90.81
X77.83Y-83.19
X77.83Y-90.81
M30
