G04 #@! TF.GenerationSoftware,KiCad,Pcbnew,8.0.0*
G04 #@! TF.CreationDate,2024-03-01T09:31:10-05:00*
G04 #@! TF.ProjectId,Rosco-CoPro,526f7363-6f2d-4436-9f50-726f2e6b6963,rev?*
G04 #@! TF.SameCoordinates,Original*
G04 #@! TF.FileFunction,Copper,L4,Bot*
G04 #@! TF.FilePolarity,Positive*
%FSLAX46Y46*%
G04 Gerber Fmt 4.6, Leading zero omitted, Abs format (unit mm)*
G04 Created by KiCad (PCBNEW 8.0.0) date 2024-03-01 09:31:10*
%MOMM*%
%LPD*%
G01*
G04 APERTURE LIST*
G04 #@! TA.AperFunction,ComponentPad*
%ADD10C,1.600000*%
G04 #@! TD*
G04 #@! TA.AperFunction,ComponentPad*
%ADD11R,1.700000X1.700000*%
G04 #@! TD*
G04 #@! TA.AperFunction,ComponentPad*
%ADD12O,1.700000X1.700000*%
G04 #@! TD*
G04 #@! TA.AperFunction,ComponentPad*
%ADD13O,1.600000X1.600000*%
G04 #@! TD*
G04 #@! TA.AperFunction,ComponentPad*
%ADD14R,1.600000X2.400000*%
G04 #@! TD*
G04 #@! TA.AperFunction,ComponentPad*
%ADD15O,1.600000X2.400000*%
G04 #@! TD*
G04 #@! TA.AperFunction,ComponentPad*
%ADD16R,1.422400X1.422400*%
G04 #@! TD*
G04 #@! TA.AperFunction,ComponentPad*
%ADD17C,1.422400*%
G04 #@! TD*
G04 #@! TA.AperFunction,ComponentPad*
%ADD18R,1.600000X1.600000*%
G04 #@! TD*
G04 #@! TA.AperFunction,ComponentPad*
%ADD19R,2.500000X2.500000*%
G04 #@! TD*
G04 #@! TA.AperFunction,ComponentPad*
%ADD20C,2.500000*%
G04 #@! TD*
G04 #@! TA.AperFunction,ViaPad*
%ADD21C,0.700000*%
G04 #@! TD*
G04 #@! TA.AperFunction,Conductor*
%ADD22C,0.250000*%
G04 #@! TD*
G04 APERTURE END LIST*
D10*
X54750000Y-97000000D03*
X57250000Y-97000000D03*
D11*
X55020000Y-85783300D03*
D12*
X55020000Y-88323300D03*
X55020000Y-90863300D03*
D10*
X63000000Y-83420000D03*
D13*
X63000000Y-93580000D03*
D10*
X84500000Y-119250000D03*
X84500000Y-121750000D03*
X55250000Y-136000000D03*
X57750000Y-136000000D03*
X75250000Y-97500000D03*
X77750000Y-97500000D03*
X46000000Y-116750000D03*
X46000000Y-114250000D03*
D14*
X79480000Y-65220000D03*
D15*
X76940000Y-65220000D03*
X74400000Y-65220000D03*
X71860000Y-65220000D03*
X69320000Y-65220000D03*
X66780000Y-65220000D03*
X64240000Y-65220000D03*
X61700000Y-65220000D03*
X59160000Y-65220000D03*
X56620000Y-65220000D03*
X54080000Y-65220000D03*
X51540000Y-65220000D03*
X51540000Y-72840000D03*
X54080000Y-72840000D03*
X56620000Y-72840000D03*
X59160000Y-72840000D03*
X61700000Y-72840000D03*
X64240000Y-72840000D03*
X66780000Y-72840000D03*
X69320000Y-72840000D03*
X71860000Y-72840000D03*
X74400000Y-72840000D03*
X76940000Y-72840000D03*
X79480000Y-72840000D03*
D10*
X84500000Y-116250000D03*
X84500000Y-113750000D03*
D16*
X65100000Y-129500000D03*
D17*
X65100000Y-126960000D03*
X67640000Y-129500000D03*
X67640000Y-126960000D03*
X70180000Y-129500000D03*
X70180000Y-126960000D03*
X72720000Y-129500000D03*
X72720000Y-126960000D03*
X75260000Y-129500000D03*
X77800000Y-126960000D03*
X75260000Y-126960000D03*
X77800000Y-124420000D03*
X75260000Y-124420000D03*
X77800000Y-121880000D03*
X75260000Y-121880000D03*
X77800000Y-119340000D03*
X75260000Y-119340000D03*
X77800000Y-116800000D03*
X75260000Y-116800000D03*
X77800000Y-114260000D03*
X75260000Y-114260000D03*
X77800000Y-111720000D03*
X75260000Y-111720000D03*
X77800000Y-109180000D03*
X75260000Y-109180000D03*
X77800000Y-106640000D03*
X75260000Y-104100000D03*
X75260000Y-106640000D03*
X72720000Y-104100000D03*
X72720000Y-106640000D03*
X70180000Y-104100000D03*
X70180000Y-106640000D03*
X67640000Y-104100000D03*
X67640000Y-106640000D03*
X65100000Y-104100000D03*
X65100000Y-106640000D03*
X62560000Y-104100000D03*
X62560000Y-106640000D03*
X60020000Y-104100000D03*
X60020000Y-106640000D03*
X57480000Y-104100000D03*
X57480000Y-106640000D03*
X54940000Y-104100000D03*
X52400000Y-106640000D03*
X54940000Y-106640000D03*
X52400000Y-109180000D03*
X54940000Y-109180000D03*
X52400000Y-111720000D03*
X54940000Y-111720000D03*
X52400000Y-114260000D03*
X54940000Y-114260000D03*
X52400000Y-116800000D03*
X54940000Y-116800000D03*
X52400000Y-119340000D03*
X54940000Y-119340000D03*
X52400000Y-121880000D03*
X54940000Y-121880000D03*
X52400000Y-124420000D03*
X54940000Y-124420000D03*
X52400000Y-126960000D03*
X54940000Y-129500000D03*
X54940000Y-126960000D03*
X57480000Y-129500000D03*
X57480000Y-126960000D03*
X60020000Y-129500000D03*
X60020000Y-126960000D03*
X62560000Y-129500000D03*
X62560000Y-126960000D03*
D18*
X46930000Y-58624900D03*
D10*
X46930000Y-61124900D03*
X84500000Y-127250000D03*
X84500000Y-124750000D03*
X78020000Y-77500000D03*
X75520000Y-77500000D03*
D11*
X38500000Y-60300000D03*
D12*
X41040000Y-60300000D03*
X38500000Y-62840000D03*
X41040000Y-62840000D03*
X38500000Y-65380000D03*
X41040000Y-65380000D03*
X38500000Y-67920000D03*
X41040000Y-67920000D03*
X38500000Y-70460000D03*
X41040000Y-70460000D03*
X38500000Y-73000000D03*
X41040000Y-73000000D03*
X38500000Y-75540000D03*
X41040000Y-75540000D03*
X38500000Y-78080000D03*
X41040000Y-78080000D03*
X38500000Y-80620000D03*
X41040000Y-80620000D03*
X38500000Y-83160000D03*
X41040000Y-83160000D03*
X38500000Y-85700000D03*
X41040000Y-85700000D03*
X38500000Y-88240000D03*
X41040000Y-88240000D03*
X38500000Y-90780000D03*
X41040000Y-90780000D03*
X38500000Y-93320000D03*
X41040000Y-93320000D03*
X38500000Y-95860000D03*
X41040000Y-95860000D03*
X38500000Y-98400000D03*
X41040000Y-98400000D03*
X38500000Y-100940000D03*
X41040000Y-100940000D03*
X38500000Y-103480000D03*
X41040000Y-103480000D03*
X38500000Y-106020000D03*
X41040000Y-106020000D03*
X38500000Y-108560000D03*
X41040000Y-108560000D03*
X38500000Y-111100000D03*
X41040000Y-111100000D03*
X38500000Y-113640000D03*
X41040000Y-113640000D03*
X38500000Y-116180000D03*
X41040000Y-116180000D03*
X38500000Y-118720000D03*
X41040000Y-118720000D03*
X38500000Y-121260000D03*
X41040000Y-121260000D03*
X38500000Y-123800000D03*
X41040000Y-123800000D03*
X38500000Y-126340000D03*
X41040000Y-126340000D03*
X38500000Y-128880000D03*
X41040000Y-128880000D03*
X38500000Y-131420000D03*
X41040000Y-131420000D03*
X38500000Y-133960000D03*
X41040000Y-133960000D03*
X38500000Y-136500000D03*
X41040000Y-136500000D03*
X38500000Y-139040000D03*
X41040000Y-139040000D03*
D10*
X84000000Y-70250000D03*
X84000000Y-67750000D03*
D19*
X70210000Y-83190000D03*
D20*
X70210000Y-90810000D03*
X77830000Y-90810000D03*
X77830000Y-83190000D03*
D21*
X45261700Y-81483100D03*
X55179800Y-71454400D03*
X57362200Y-71234300D03*
X61514400Y-115691300D03*
X43741200Y-78749400D03*
X53670000Y-117996400D03*
X50714500Y-110208100D03*
X44664400Y-111153800D03*
X49947600Y-130580000D03*
D22*
X48266800Y-78478000D02*
X60608900Y-78478000D01*
X45261700Y-81483100D02*
X48266800Y-78478000D01*
X65534800Y-73552100D02*
X65534800Y-67991900D01*
X66780000Y-65220000D02*
X66780000Y-66746700D01*
X60608900Y-78478000D02*
X65534800Y-73552100D01*
X65534800Y-67991900D02*
X66780000Y-66746700D01*
X61700000Y-72840000D02*
X57636700Y-76903300D01*
X57636700Y-76903300D02*
X40485600Y-76903300D01*
X39676700Y-77712200D02*
X39676700Y-78080000D01*
X40485600Y-76903300D02*
X39676700Y-77712200D01*
X38500000Y-78080000D02*
X39676700Y-78080000D01*
X59160000Y-72840000D02*
X59160000Y-74366700D01*
X39676700Y-75540000D02*
X39676700Y-75172200D01*
X40485600Y-74363300D02*
X42011600Y-74363300D01*
X58682700Y-74844000D02*
X59160000Y-74366700D01*
X39676700Y-75172200D02*
X40485600Y-74363300D01*
X42011600Y-74363300D02*
X42492300Y-74844000D01*
X42492300Y-74844000D02*
X58682700Y-74844000D01*
X38500000Y-75540000D02*
X39676700Y-75540000D01*
X56620000Y-72840000D02*
X56620000Y-74366700D01*
X39676700Y-73000000D02*
X39676700Y-72632300D01*
X38500000Y-73000000D02*
X39676700Y-73000000D01*
X46674600Y-71819900D02*
X49221400Y-74366700D01*
X49221400Y-74366700D02*
X56620000Y-74366700D01*
X39676700Y-72632300D02*
X40489100Y-71819900D01*
X40489100Y-71819900D02*
X46674600Y-71819900D01*
X54077900Y-71313300D02*
X54080000Y-71313300D01*
X54080000Y-72840000D02*
X54080000Y-71313300D01*
X38500000Y-70460000D02*
X39676700Y-70460000D01*
X39676700Y-70460000D02*
X39676700Y-70092300D01*
X39676700Y-70092300D02*
X40491500Y-69277500D01*
X52042100Y-69277500D02*
X54077900Y-71313300D01*
X40491500Y-69277500D02*
X52042100Y-69277500D01*
X40516200Y-66712800D02*
X50116200Y-66712800D01*
X53292600Y-69567200D02*
X55179800Y-71454400D01*
X39676700Y-67920000D02*
X39676700Y-67552300D01*
X52970600Y-69567200D02*
X53292600Y-69567200D01*
X39676700Y-67552300D02*
X40516200Y-66712800D01*
X38500000Y-67920000D02*
X39676700Y-67920000D01*
X50116200Y-66712800D02*
X52970600Y-69567200D01*
X48383900Y-64189400D02*
X51966300Y-67771800D01*
X40499600Y-64189400D02*
X48383900Y-64189400D01*
X38500000Y-65380000D02*
X39676700Y-65380000D01*
X53899700Y-67771800D02*
X57362200Y-71234300D01*
X39676700Y-65012300D02*
X40499600Y-64189400D01*
X39676700Y-65380000D02*
X39676700Y-65012300D01*
X51966300Y-67771800D02*
X53899700Y-67771800D01*
X80684800Y-100197100D02*
X76530000Y-104351900D01*
X39676700Y-60667800D02*
X40485600Y-61476700D01*
X46350300Y-62441600D02*
X79175400Y-62441600D01*
X45385400Y-61476700D02*
X46350300Y-62441600D01*
X76530000Y-104351900D02*
X76530000Y-107910000D01*
X39676700Y-60300000D02*
X39676700Y-60667800D01*
X38500000Y-60300000D02*
X39676700Y-60300000D01*
X79175400Y-62441600D02*
X80684800Y-63951000D01*
X76530000Y-107910000D02*
X75260000Y-109180000D01*
X80684800Y-63951000D02*
X80684800Y-100197100D01*
X40485600Y-61476700D02*
X45385400Y-61476700D01*
X42121900Y-137863300D02*
X47679300Y-132305900D01*
X38500000Y-139040000D02*
X39676700Y-139040000D01*
X39676700Y-139040000D02*
X39676700Y-138672200D01*
X61222000Y-132305900D02*
X63610400Y-129917500D01*
X63610400Y-128449600D02*
X65100000Y-126960000D01*
X40485600Y-137863300D02*
X42121900Y-137863300D01*
X39676700Y-138672200D02*
X40485600Y-137863300D01*
X63610400Y-129917500D02*
X63610400Y-128449600D01*
X47679300Y-132305900D02*
X61222000Y-132305900D01*
X58750000Y-128230000D02*
X54308800Y-128230000D01*
X44100200Y-129536500D02*
X42216700Y-131420000D01*
X60020000Y-126960000D02*
X58750000Y-128230000D01*
X53002300Y-129536500D02*
X44100200Y-129536500D01*
X54308800Y-128230000D02*
X53002300Y-129536500D01*
X41040000Y-131420000D02*
X42216700Y-131420000D01*
X39824700Y-131869500D02*
X40568000Y-132612800D01*
X40672300Y-130056700D02*
X39824700Y-130904300D01*
X43245700Y-132612800D02*
X44601800Y-131256700D01*
X41040000Y-128880000D02*
X41040000Y-130056700D01*
X58263300Y-131256700D02*
X60020000Y-129500000D01*
X39824700Y-130904300D02*
X39824700Y-131869500D01*
X40568000Y-132612800D02*
X43245700Y-132612800D01*
X44601800Y-131256700D02*
X58263300Y-131256700D01*
X41040000Y-130056700D02*
X40672300Y-130056700D01*
X44514000Y-127998400D02*
X42855600Y-126340000D01*
X54505400Y-125883300D02*
X53509900Y-126878800D01*
X57480000Y-119725700D02*
X61514400Y-115691300D01*
X57480000Y-126960000D02*
X57480000Y-119725700D01*
X53509900Y-127347600D02*
X52859100Y-127998400D01*
X42855600Y-126340000D02*
X42216700Y-126340000D01*
X56403300Y-125883300D02*
X54505400Y-125883300D01*
X53509900Y-126878800D02*
X53509900Y-127347600D01*
X41040000Y-126340000D02*
X42216700Y-126340000D01*
X52859100Y-127998400D02*
X44514000Y-127998400D01*
X57480000Y-126960000D02*
X56403300Y-125883300D01*
X39676700Y-85700000D02*
X39676700Y-85332200D01*
X38500000Y-85700000D02*
X39676700Y-85700000D01*
X56058900Y-79384300D02*
X62775700Y-79384300D01*
X40485600Y-84523300D02*
X50919900Y-84523300D01*
X62775700Y-79384300D02*
X69320000Y-72840000D01*
X50919900Y-84523300D02*
X56058900Y-79384300D01*
X39676700Y-85332200D02*
X40485600Y-84523300D01*
X38500000Y-88240000D02*
X39676700Y-88240000D01*
X39676700Y-87872200D02*
X40485600Y-87063300D01*
X40485600Y-87063300D02*
X50114700Y-87063300D01*
X39676700Y-88240000D02*
X39676700Y-87872200D01*
X56666000Y-80512000D02*
X64307100Y-80512000D01*
X50114700Y-87063300D02*
X56666000Y-80512000D01*
X64307100Y-80512000D02*
X71860000Y-72959100D01*
X71860000Y-72959100D02*
X71860000Y-72840000D01*
X66780000Y-72840000D02*
X66780000Y-74366700D01*
X53185700Y-78932600D02*
X62214100Y-78932600D01*
X40527900Y-81941100D02*
X44633400Y-81941100D01*
X44914700Y-82222400D02*
X49895900Y-82222400D01*
X39676700Y-83160000D02*
X39676700Y-82792300D01*
X38500000Y-83160000D02*
X39676700Y-83160000D01*
X49895900Y-82222400D02*
X53185700Y-78932600D01*
X44633400Y-81941100D02*
X44914700Y-82222400D01*
X39676700Y-82792300D02*
X40527900Y-81941100D01*
X62214100Y-78932600D02*
X66780000Y-74366700D01*
X45559500Y-79443300D02*
X40485600Y-79443300D01*
X47039800Y-77963000D02*
X45559500Y-79443300D01*
X59258800Y-77963000D02*
X47039800Y-77963000D01*
X38500000Y-80620000D02*
X39676700Y-80620000D01*
X64240000Y-72981800D02*
X59258800Y-77963000D01*
X39676700Y-80252200D02*
X39676700Y-80620000D01*
X64240000Y-72840000D02*
X64240000Y-72981800D01*
X40485600Y-79443300D02*
X39676700Y-80252200D01*
X44979400Y-77511200D02*
X43741200Y-78749400D01*
X63081400Y-67905300D02*
X63081400Y-73501500D01*
X59071700Y-77511200D02*
X44979400Y-77511200D01*
X64240000Y-65220000D02*
X64240000Y-66746700D01*
X63081400Y-73501500D02*
X59071700Y-77511200D01*
X64240000Y-66746700D02*
X63081400Y-67905300D01*
X41040000Y-123800000D02*
X41040000Y-124976700D01*
X40672300Y-124976700D02*
X39824700Y-125824300D01*
X53238100Y-128501800D02*
X54779900Y-126960000D01*
X39824700Y-125824300D02*
X39824700Y-126789500D01*
X40645200Y-127610000D02*
X43077100Y-127610000D01*
X43077100Y-127610000D02*
X43968900Y-128501800D01*
X43968900Y-128501800D02*
X53238100Y-128501800D01*
X39824700Y-126789500D02*
X40645200Y-127610000D01*
X41040000Y-124976700D02*
X40672300Y-124976700D01*
X54779900Y-126960000D02*
X54940000Y-126960000D01*
X41040000Y-121260000D02*
X42216700Y-121260000D01*
X42216700Y-121260000D02*
X47916700Y-126960000D01*
X47916700Y-126960000D02*
X52400000Y-126960000D01*
X49578300Y-123150000D02*
X53670000Y-123150000D01*
X53670000Y-123150000D02*
X54940000Y-124420000D01*
X45148300Y-118720000D02*
X49578300Y-123150000D01*
X41040000Y-118720000D02*
X45148300Y-118720000D01*
X45748200Y-119990000D02*
X50178200Y-124420000D01*
X38085300Y-119990000D02*
X45748200Y-119990000D01*
X50178200Y-124420000D02*
X52400000Y-124420000D01*
X38189700Y-117356700D02*
X37291600Y-118254800D01*
X39863300Y-116180000D02*
X39863300Y-116547800D01*
X37291600Y-119196300D02*
X38085300Y-119990000D01*
X37291600Y-118254800D02*
X37291600Y-119196300D01*
X41040000Y-116180000D02*
X39863300Y-116180000D01*
X39054400Y-117356700D02*
X38189700Y-117356700D01*
X39863300Y-116547800D02*
X39054400Y-117356700D01*
X44335500Y-110477100D02*
X42216700Y-112595900D01*
X53670000Y-110679700D02*
X53670000Y-117996400D01*
X41040000Y-113640000D02*
X42216700Y-113640000D01*
X50994800Y-110884800D02*
X45352400Y-110884800D01*
X61060300Y-110679700D02*
X53670000Y-110679700D01*
X44944700Y-110477100D02*
X44335500Y-110477100D01*
X65100000Y-106640000D02*
X61060300Y-110679700D01*
X51199900Y-110679700D02*
X50994800Y-110884800D01*
X53670000Y-110679700D02*
X51199900Y-110679700D01*
X45352400Y-110884800D02*
X44944700Y-110477100D01*
X42216700Y-112595900D02*
X42216700Y-113640000D01*
X50404400Y-109898000D02*
X50404400Y-107138700D01*
X50404400Y-109898000D02*
X50714500Y-110208100D01*
X50404400Y-107138700D02*
X52173100Y-105370000D01*
X42216700Y-111100000D02*
X43418700Y-109898000D01*
X43418700Y-109898000D02*
X50404400Y-109898000D01*
X52173100Y-105370000D02*
X63830000Y-105370000D01*
X41040000Y-111100000D02*
X42216700Y-111100000D01*
X63830000Y-105370000D02*
X65100000Y-104100000D01*
X66370000Y-105370000D02*
X67640000Y-106640000D01*
X66370000Y-103902100D02*
X66370000Y-105370000D01*
X41040000Y-108560000D02*
X42216700Y-108560000D01*
X42216700Y-108560000D02*
X47735500Y-103041200D01*
X67640000Y-106640000D02*
X54940000Y-119340000D01*
X47735500Y-103041200D02*
X65509100Y-103041200D01*
X65509100Y-103041200D02*
X66370000Y-103902100D01*
X52400000Y-118889400D02*
X52400000Y-119340000D01*
X45680600Y-102556100D02*
X66096100Y-102556100D01*
X41040000Y-106020000D02*
X42216700Y-106020000D01*
X44664400Y-111153800D02*
X52400000Y-118889400D01*
X42216700Y-106020000D02*
X45680600Y-102556100D01*
X66096100Y-102556100D02*
X67640000Y-104100000D01*
X74795900Y-110257500D02*
X74211200Y-109672800D01*
X37313000Y-135956000D02*
X37313000Y-139564500D01*
X71217900Y-129493500D02*
X72481400Y-128230000D01*
X74211200Y-107688800D02*
X75260000Y-106640000D01*
X38500000Y-135136700D02*
X38132300Y-135136700D01*
X75317900Y-110257500D02*
X74795900Y-110257500D01*
X37313000Y-139564500D02*
X37979600Y-140231100D01*
X75009700Y-125690000D02*
X75492200Y-125690000D01*
X73990000Y-126709700D02*
X75009700Y-125690000D01*
X76757000Y-124425200D02*
X76757000Y-111696600D01*
X38500000Y-133960000D02*
X38500000Y-135136700D01*
X37979600Y-140231100D02*
X60999000Y-140231100D01*
X76757000Y-111696600D02*
X75317900Y-110257500D01*
X60999000Y-140231100D02*
X71217900Y-130012200D01*
X73990000Y-127210400D02*
X73990000Y-126709700D01*
X74211200Y-109672800D02*
X74211200Y-107688800D01*
X72970400Y-128230000D02*
X73990000Y-127210400D01*
X38132300Y-135136700D02*
X37313000Y-135956000D01*
X72481400Y-128230000D02*
X72970400Y-128230000D01*
X71217900Y-130012200D02*
X71217900Y-129493500D01*
X75492200Y-125690000D02*
X76757000Y-124425200D01*
X38182200Y-64016700D02*
X37307300Y-64891600D01*
X39863300Y-62840000D02*
X39863300Y-63207800D01*
X37307300Y-88756300D02*
X37976800Y-89425800D01*
X39863300Y-63207800D02*
X39054400Y-64016700D01*
X55020000Y-85783300D02*
X53843300Y-85783300D01*
X37307300Y-64891600D02*
X37307300Y-88756300D01*
X37976800Y-89425800D02*
X50200800Y-89425800D01*
X39054400Y-64016700D02*
X38182200Y-64016700D01*
X50200800Y-89425800D02*
X53843300Y-85783300D01*
X41040000Y-62840000D02*
X39863300Y-62840000D01*
X56196700Y-90863300D02*
X58913400Y-93580000D01*
X58913400Y-93580000D02*
X63000000Y-93580000D01*
X55020000Y-90863300D02*
X56196700Y-90863300D01*
X63000000Y-83420000D02*
X64578400Y-84998400D01*
X72018400Y-84998400D02*
X77830000Y-90810000D01*
X64578400Y-84998400D02*
X72018400Y-84998400D01*
X76840300Y-74961600D02*
X78353300Y-73448600D01*
X42216700Y-100940000D02*
X53563400Y-89593300D01*
X53563400Y-89593300D02*
X55432300Y-89593300D01*
X78353300Y-67873400D02*
X79480000Y-66746700D01*
X60725300Y-84300300D02*
X60725300Y-84094800D01*
X68138800Y-82293300D02*
X75470500Y-74961600D01*
X60725300Y-84094800D02*
X62526800Y-82293300D01*
X75470500Y-74961600D02*
X76840300Y-74961600D01*
X79480000Y-65220000D02*
X79480000Y-66746700D01*
X62526800Y-82293300D02*
X68138800Y-82293300D01*
X41040000Y-100940000D02*
X42216700Y-100940000D01*
X78353300Y-73448600D02*
X78353300Y-67873400D01*
X55432300Y-89593300D02*
X60725300Y-84300300D01*
X48021800Y-120434800D02*
X55592600Y-120434800D01*
X39676700Y-118720000D02*
X39676700Y-118352200D01*
X40485600Y-117543300D02*
X45130300Y-117543300D01*
X38500000Y-118720000D02*
X39676700Y-118720000D01*
X61767400Y-114260000D02*
X75260000Y-114260000D01*
X55592600Y-120434800D02*
X61767400Y-114260000D01*
X39676700Y-118352200D02*
X40485600Y-117543300D01*
X45130300Y-117543300D02*
X48021800Y-120434800D01*
X57119300Y-87053300D02*
X53563400Y-87053300D01*
X76940000Y-66746700D02*
X75675400Y-68011300D01*
X75675400Y-68011300D02*
X75675400Y-73573600D01*
X62537100Y-81635500D02*
X57119300Y-87053300D01*
X41040000Y-98400000D02*
X42216700Y-98400000D01*
X76940000Y-65220000D02*
X76940000Y-66746700D01*
X53563400Y-87053300D02*
X42216700Y-98400000D01*
X67613500Y-81635500D02*
X62537100Y-81635500D01*
X75675400Y-73573600D02*
X67613500Y-81635500D01*
X73012100Y-64367300D02*
X73012100Y-73684600D01*
X72338100Y-63693300D02*
X73012100Y-64367300D01*
X73012100Y-73684600D02*
X65657200Y-81039500D01*
X69320000Y-65220000D02*
X69320000Y-63693300D01*
X49615900Y-88240000D02*
X42216700Y-88240000D01*
X41040000Y-88240000D02*
X42216700Y-88240000D01*
X56816400Y-81039500D02*
X49615900Y-88240000D01*
X65657200Y-81039500D02*
X56816400Y-81039500D01*
X69320000Y-63693300D02*
X72338100Y-63693300D01*
X56515500Y-79984500D02*
X50800000Y-85700000D01*
X50800000Y-85700000D02*
X41040000Y-85700000D01*
X64173400Y-79984500D02*
X56515500Y-79984500D01*
X71860000Y-65220000D02*
X71860000Y-66746700D01*
X70590000Y-73567900D02*
X64173400Y-79984500D01*
X70590000Y-68016700D02*
X70590000Y-73567900D01*
X71860000Y-66746700D02*
X70590000Y-68016700D01*
X75084000Y-113074900D02*
X75572400Y-113074900D01*
X75572400Y-113074900D02*
X76298600Y-113801100D01*
X41040000Y-103480000D02*
X42216700Y-103480000D01*
X68910000Y-106900900D02*
X75084000Y-113074900D01*
X67082700Y-102070900D02*
X68910000Y-103898200D01*
X76298600Y-113801100D02*
X76298600Y-123381400D01*
X68910000Y-103898200D02*
X68910000Y-106900900D01*
X42216700Y-103480000D02*
X43625800Y-102070900D01*
X43625800Y-102070900D02*
X67082700Y-102070900D01*
X76298600Y-123381400D02*
X75260000Y-124420000D01*
X70180000Y-106640000D02*
X71221700Y-105598300D01*
X69151800Y-101596500D02*
X42222300Y-101596500D01*
X71221700Y-105598300D02*
X71221700Y-103666400D01*
X38500000Y-131420000D02*
X38500000Y-130243300D01*
X71221700Y-103666400D02*
X69151800Y-101596500D01*
X38075800Y-114910000D02*
X36806600Y-116179200D01*
X39770000Y-114115500D02*
X38975500Y-114910000D01*
X40609200Y-102210000D02*
X39770000Y-103049200D01*
X38132300Y-130243300D02*
X38500000Y-130243300D01*
X41608800Y-102210000D02*
X40609200Y-102210000D01*
X39770000Y-103049200D02*
X39770000Y-114115500D01*
X42222300Y-101596500D02*
X41608800Y-102210000D01*
X38975500Y-114910000D02*
X38075800Y-114910000D01*
X36806600Y-128917600D02*
X38132300Y-130243300D01*
X36806600Y-116179200D02*
X36806600Y-128917600D01*
X58750000Y-129755600D02*
X58750000Y-129287400D01*
X57925600Y-130580000D02*
X58750000Y-129755600D01*
X49947600Y-130580000D02*
X57925600Y-130580000D01*
X59807400Y-128230000D02*
X61290000Y-128230000D01*
X58750000Y-129287400D02*
X59807400Y-128230000D01*
X61290000Y-128230000D02*
X62560000Y-126960000D01*
X45107000Y-131708400D02*
X42855400Y-133960000D01*
X41040000Y-133960000D02*
X42216700Y-133960000D01*
X42855400Y-133960000D02*
X42216700Y-133960000D01*
X62560000Y-129500000D02*
X60351600Y-131708400D01*
X60351600Y-131708400D02*
X45107000Y-131708400D01*
X42216700Y-139040000D02*
X48445500Y-132811200D01*
X48445500Y-132811200D02*
X61389900Y-132811200D01*
X65100000Y-129500000D02*
X64062100Y-129500000D01*
X64062100Y-130139000D02*
X64062100Y-129500000D01*
X61389900Y-132811200D02*
X64062100Y-130139000D01*
X41040000Y-139040000D02*
X42216700Y-139040000D01*
M02*
