G04 #@! TF.GenerationSoftware,KiCad,Pcbnew,8.0.0*
G04 #@! TF.CreationDate,2024-03-01T09:31:10-05:00*
G04 #@! TF.ProjectId,Rosco-CoPro,526f7363-6f2d-4436-9f50-726f2e6b6963,rev?*
G04 #@! TF.SameCoordinates,Original*
G04 #@! TF.FileFunction,Legend,Top*
G04 #@! TF.FilePolarity,Positive*
%FSLAX46Y46*%
G04 Gerber Fmt 4.6, Leading zero omitted, Abs format (unit mm)*
G04 Created by KiCad (PCBNEW 8.0.0) date 2024-03-01 09:31:10*
%MOMM*%
%LPD*%
G01*
G04 APERTURE LIST*
%ADD10C,0.150000*%
%ADD11C,0.250000*%
%ADD12C,0.300000*%
%ADD13C,0.120000*%
%ADD14C,1.600000*%
%ADD15R,1.700000X1.700000*%
%ADD16O,1.700000X1.700000*%
%ADD17O,1.600000X1.600000*%
%ADD18R,1.600000X2.400000*%
%ADD19O,1.600000X2.400000*%
%ADD20R,1.422400X1.422400*%
%ADD21C,1.422400*%
%ADD22R,1.600000X1.600000*%
%ADD23R,2.500000X2.500000*%
%ADD24C,2.500000*%
%ADD25C,0.700000*%
G04 APERTURE END LIST*
D10*
X57220000Y-86983300D02*
X57220000Y-92383300D01*
X52820000Y-83983300D02*
X52820000Y-89383300D01*
D11*
X85145324Y-83373996D02*
X85621515Y-83040663D01*
X85145324Y-82802568D02*
X86145324Y-82802568D01*
X86145324Y-82802568D02*
X86145324Y-83183520D01*
X86145324Y-83183520D02*
X86097705Y-83278758D01*
X86097705Y-83278758D02*
X86050086Y-83326377D01*
X86050086Y-83326377D02*
X85954848Y-83373996D01*
X85954848Y-83373996D02*
X85811991Y-83373996D01*
X85811991Y-83373996D02*
X85716753Y-83326377D01*
X85716753Y-83326377D02*
X85669134Y-83278758D01*
X85669134Y-83278758D02*
X85621515Y-83183520D01*
X85621515Y-83183520D02*
X85621515Y-82802568D01*
X85145324Y-83945425D02*
X85192944Y-83850187D01*
X85192944Y-83850187D02*
X85240563Y-83802568D01*
X85240563Y-83802568D02*
X85335801Y-83754949D01*
X85335801Y-83754949D02*
X85621515Y-83754949D01*
X85621515Y-83754949D02*
X85716753Y-83802568D01*
X85716753Y-83802568D02*
X85764372Y-83850187D01*
X85764372Y-83850187D02*
X85811991Y-83945425D01*
X85811991Y-83945425D02*
X85811991Y-84088282D01*
X85811991Y-84088282D02*
X85764372Y-84183520D01*
X85764372Y-84183520D02*
X85716753Y-84231139D01*
X85716753Y-84231139D02*
X85621515Y-84278758D01*
X85621515Y-84278758D02*
X85335801Y-84278758D01*
X85335801Y-84278758D02*
X85240563Y-84231139D01*
X85240563Y-84231139D02*
X85192944Y-84183520D01*
X85192944Y-84183520D02*
X85145324Y-84088282D01*
X85145324Y-84088282D02*
X85145324Y-83945425D01*
X85192944Y-84659711D02*
X85145324Y-84754949D01*
X85145324Y-84754949D02*
X85145324Y-84945425D01*
X85145324Y-84945425D02*
X85192944Y-85040663D01*
X85192944Y-85040663D02*
X85288182Y-85088282D01*
X85288182Y-85088282D02*
X85335801Y-85088282D01*
X85335801Y-85088282D02*
X85431039Y-85040663D01*
X85431039Y-85040663D02*
X85478658Y-84945425D01*
X85478658Y-84945425D02*
X85478658Y-84802568D01*
X85478658Y-84802568D02*
X85526277Y-84707330D01*
X85526277Y-84707330D02*
X85621515Y-84659711D01*
X85621515Y-84659711D02*
X85669134Y-84659711D01*
X85669134Y-84659711D02*
X85764372Y-84707330D01*
X85764372Y-84707330D02*
X85811991Y-84802568D01*
X85811991Y-84802568D02*
X85811991Y-84945425D01*
X85811991Y-84945425D02*
X85764372Y-85040663D01*
X85192944Y-85945425D02*
X85145324Y-85850187D01*
X85145324Y-85850187D02*
X85145324Y-85659711D01*
X85145324Y-85659711D02*
X85192944Y-85564473D01*
X85192944Y-85564473D02*
X85240563Y-85516854D01*
X85240563Y-85516854D02*
X85335801Y-85469235D01*
X85335801Y-85469235D02*
X85621515Y-85469235D01*
X85621515Y-85469235D02*
X85716753Y-85516854D01*
X85716753Y-85516854D02*
X85764372Y-85564473D01*
X85764372Y-85564473D02*
X85811991Y-85659711D01*
X85811991Y-85659711D02*
X85811991Y-85850187D01*
X85811991Y-85850187D02*
X85764372Y-85945425D01*
X85145324Y-86516854D02*
X85192944Y-86421616D01*
X85192944Y-86421616D02*
X85240563Y-86373997D01*
X85240563Y-86373997D02*
X85335801Y-86326378D01*
X85335801Y-86326378D02*
X85621515Y-86326378D01*
X85621515Y-86326378D02*
X85716753Y-86373997D01*
X85716753Y-86373997D02*
X85764372Y-86421616D01*
X85764372Y-86421616D02*
X85811991Y-86516854D01*
X85811991Y-86516854D02*
X85811991Y-86659711D01*
X85811991Y-86659711D02*
X85764372Y-86754949D01*
X85764372Y-86754949D02*
X85716753Y-86802568D01*
X85716753Y-86802568D02*
X85621515Y-86850187D01*
X85621515Y-86850187D02*
X85335801Y-86850187D01*
X85335801Y-86850187D02*
X85240563Y-86802568D01*
X85240563Y-86802568D02*
X85192944Y-86754949D01*
X85192944Y-86754949D02*
X85145324Y-86659711D01*
X85145324Y-86659711D02*
X85145324Y-86516854D01*
X85526277Y-87278759D02*
X85526277Y-88040664D01*
X85240563Y-89088282D02*
X85192944Y-89040663D01*
X85192944Y-89040663D02*
X85145324Y-88897806D01*
X85145324Y-88897806D02*
X85145324Y-88802568D01*
X85145324Y-88802568D02*
X85192944Y-88659711D01*
X85192944Y-88659711D02*
X85288182Y-88564473D01*
X85288182Y-88564473D02*
X85383420Y-88516854D01*
X85383420Y-88516854D02*
X85573896Y-88469235D01*
X85573896Y-88469235D02*
X85716753Y-88469235D01*
X85716753Y-88469235D02*
X85907229Y-88516854D01*
X85907229Y-88516854D02*
X86002467Y-88564473D01*
X86002467Y-88564473D02*
X86097705Y-88659711D01*
X86097705Y-88659711D02*
X86145324Y-88802568D01*
X86145324Y-88802568D02*
X86145324Y-88897806D01*
X86145324Y-88897806D02*
X86097705Y-89040663D01*
X86097705Y-89040663D02*
X86050086Y-89088282D01*
X85145324Y-89659711D02*
X85192944Y-89564473D01*
X85192944Y-89564473D02*
X85240563Y-89516854D01*
X85240563Y-89516854D02*
X85335801Y-89469235D01*
X85335801Y-89469235D02*
X85621515Y-89469235D01*
X85621515Y-89469235D02*
X85716753Y-89516854D01*
X85716753Y-89516854D02*
X85764372Y-89564473D01*
X85764372Y-89564473D02*
X85811991Y-89659711D01*
X85811991Y-89659711D02*
X85811991Y-89802568D01*
X85811991Y-89802568D02*
X85764372Y-89897806D01*
X85764372Y-89897806D02*
X85716753Y-89945425D01*
X85716753Y-89945425D02*
X85621515Y-89993044D01*
X85621515Y-89993044D02*
X85335801Y-89993044D01*
X85335801Y-89993044D02*
X85240563Y-89945425D01*
X85240563Y-89945425D02*
X85192944Y-89897806D01*
X85192944Y-89897806D02*
X85145324Y-89802568D01*
X85145324Y-89802568D02*
X85145324Y-89659711D01*
X85145324Y-90421616D02*
X86145324Y-90421616D01*
X86145324Y-90421616D02*
X86145324Y-90802568D01*
X86145324Y-90802568D02*
X86097705Y-90897806D01*
X86097705Y-90897806D02*
X86050086Y-90945425D01*
X86050086Y-90945425D02*
X85954848Y-90993044D01*
X85954848Y-90993044D02*
X85811991Y-90993044D01*
X85811991Y-90993044D02*
X85716753Y-90945425D01*
X85716753Y-90945425D02*
X85669134Y-90897806D01*
X85669134Y-90897806D02*
X85621515Y-90802568D01*
X85621515Y-90802568D02*
X85621515Y-90421616D01*
X85145324Y-91421616D02*
X85811991Y-91421616D01*
X85621515Y-91421616D02*
X85716753Y-91469235D01*
X85716753Y-91469235D02*
X85764372Y-91516854D01*
X85764372Y-91516854D02*
X85811991Y-91612092D01*
X85811991Y-91612092D02*
X85811991Y-91707330D01*
X85145324Y-92183521D02*
X85192944Y-92088283D01*
X85192944Y-92088283D02*
X85240563Y-92040664D01*
X85240563Y-92040664D02*
X85335801Y-91993045D01*
X85335801Y-91993045D02*
X85621515Y-91993045D01*
X85621515Y-91993045D02*
X85716753Y-92040664D01*
X85716753Y-92040664D02*
X85764372Y-92088283D01*
X85764372Y-92088283D02*
X85811991Y-92183521D01*
X85811991Y-92183521D02*
X85811991Y-92326378D01*
X85811991Y-92326378D02*
X85764372Y-92421616D01*
X85764372Y-92421616D02*
X85716753Y-92469235D01*
X85716753Y-92469235D02*
X85621515Y-92516854D01*
X85621515Y-92516854D02*
X85335801Y-92516854D01*
X85335801Y-92516854D02*
X85240563Y-92469235D01*
X85240563Y-92469235D02*
X85192944Y-92421616D01*
X85192944Y-92421616D02*
X85145324Y-92326378D01*
X85145324Y-92326378D02*
X85145324Y-92183521D01*
X83535380Y-82802568D02*
X84535380Y-82802568D01*
X84535380Y-82802568D02*
X83821095Y-83135901D01*
X83821095Y-83135901D02*
X84535380Y-83469234D01*
X84535380Y-83469234D02*
X83535380Y-83469234D01*
X83535380Y-84373996D02*
X84059190Y-84373996D01*
X84059190Y-84373996D02*
X84154428Y-84326377D01*
X84154428Y-84326377D02*
X84202047Y-84231139D01*
X84202047Y-84231139D02*
X84202047Y-84040663D01*
X84202047Y-84040663D02*
X84154428Y-83945425D01*
X83583000Y-84373996D02*
X83535380Y-84278758D01*
X83535380Y-84278758D02*
X83535380Y-84040663D01*
X83535380Y-84040663D02*
X83583000Y-83945425D01*
X83583000Y-83945425D02*
X83678238Y-83897806D01*
X83678238Y-83897806D02*
X83773476Y-83897806D01*
X83773476Y-83897806D02*
X83868714Y-83945425D01*
X83868714Y-83945425D02*
X83916333Y-84040663D01*
X83916333Y-84040663D02*
X83916333Y-84278758D01*
X83916333Y-84278758D02*
X83963952Y-84373996D01*
X83535380Y-84993044D02*
X83583000Y-84897806D01*
X83583000Y-84897806D02*
X83678238Y-84850187D01*
X83678238Y-84850187D02*
X84535380Y-84850187D01*
X83583000Y-85802568D02*
X83535380Y-85707330D01*
X83535380Y-85707330D02*
X83535380Y-85516854D01*
X83535380Y-85516854D02*
X83583000Y-85421616D01*
X83583000Y-85421616D02*
X83630619Y-85373997D01*
X83630619Y-85373997D02*
X83725857Y-85326378D01*
X83725857Y-85326378D02*
X84011571Y-85326378D01*
X84011571Y-85326378D02*
X84106809Y-85373997D01*
X84106809Y-85373997D02*
X84154428Y-85421616D01*
X84154428Y-85421616D02*
X84202047Y-85516854D01*
X84202047Y-85516854D02*
X84202047Y-85707330D01*
X84202047Y-85707330D02*
X84154428Y-85802568D01*
X83535380Y-86373997D02*
X83583000Y-86278759D01*
X83583000Y-86278759D02*
X83630619Y-86231140D01*
X83630619Y-86231140D02*
X83725857Y-86183521D01*
X83725857Y-86183521D02*
X84011571Y-86183521D01*
X84011571Y-86183521D02*
X84106809Y-86231140D01*
X84106809Y-86231140D02*
X84154428Y-86278759D01*
X84154428Y-86278759D02*
X84202047Y-86373997D01*
X84202047Y-86373997D02*
X84202047Y-86516854D01*
X84202047Y-86516854D02*
X84154428Y-86612092D01*
X84154428Y-86612092D02*
X84106809Y-86659711D01*
X84106809Y-86659711D02*
X84011571Y-86707330D01*
X84011571Y-86707330D02*
X83725857Y-86707330D01*
X83725857Y-86707330D02*
X83630619Y-86659711D01*
X83630619Y-86659711D02*
X83583000Y-86612092D01*
X83583000Y-86612092D02*
X83535380Y-86516854D01*
X83535380Y-86516854D02*
X83535380Y-86373997D01*
X83535380Y-87278759D02*
X83583000Y-87183521D01*
X83583000Y-87183521D02*
X83678238Y-87135902D01*
X83678238Y-87135902D02*
X84535380Y-87135902D01*
X83535380Y-87659712D02*
X84202047Y-87659712D01*
X84106809Y-87659712D02*
X84154428Y-87707331D01*
X84154428Y-87707331D02*
X84202047Y-87802569D01*
X84202047Y-87802569D02*
X84202047Y-87945426D01*
X84202047Y-87945426D02*
X84154428Y-88040664D01*
X84154428Y-88040664D02*
X84059190Y-88088283D01*
X84059190Y-88088283D02*
X83535380Y-88088283D01*
X84059190Y-88088283D02*
X84154428Y-88135902D01*
X84154428Y-88135902D02*
X84202047Y-88231140D01*
X84202047Y-88231140D02*
X84202047Y-88373997D01*
X84202047Y-88373997D02*
X84154428Y-88469236D01*
X84154428Y-88469236D02*
X84059190Y-88516855D01*
X84059190Y-88516855D02*
X83535380Y-88516855D01*
X83535380Y-89754950D02*
X84535380Y-89754950D01*
X84059190Y-89754950D02*
X84059190Y-90326378D01*
X83535380Y-90326378D02*
X84535380Y-90326378D01*
X83535380Y-91231140D02*
X84059190Y-91231140D01*
X84059190Y-91231140D02*
X84154428Y-91183521D01*
X84154428Y-91183521D02*
X84202047Y-91088283D01*
X84202047Y-91088283D02*
X84202047Y-90897807D01*
X84202047Y-90897807D02*
X84154428Y-90802569D01*
X83583000Y-91231140D02*
X83535380Y-91135902D01*
X83535380Y-91135902D02*
X83535380Y-90897807D01*
X83535380Y-90897807D02*
X83583000Y-90802569D01*
X83583000Y-90802569D02*
X83678238Y-90754950D01*
X83678238Y-90754950D02*
X83773476Y-90754950D01*
X83773476Y-90754950D02*
X83868714Y-90802569D01*
X83868714Y-90802569D02*
X83916333Y-90897807D01*
X83916333Y-90897807D02*
X83916333Y-91135902D01*
X83916333Y-91135902D02*
X83963952Y-91231140D01*
X83535380Y-91707331D02*
X84202047Y-91707331D01*
X84011571Y-91707331D02*
X84106809Y-91754950D01*
X84106809Y-91754950D02*
X84154428Y-91802569D01*
X84154428Y-91802569D02*
X84202047Y-91897807D01*
X84202047Y-91897807D02*
X84202047Y-91993045D01*
X83535380Y-92326379D02*
X84202047Y-92326379D01*
X84011571Y-92326379D02*
X84106809Y-92373998D01*
X84106809Y-92373998D02*
X84154428Y-92421617D01*
X84154428Y-92421617D02*
X84202047Y-92516855D01*
X84202047Y-92516855D02*
X84202047Y-92612093D01*
X83535380Y-93088284D02*
X83583000Y-92993046D01*
X83583000Y-92993046D02*
X83630619Y-92945427D01*
X83630619Y-92945427D02*
X83725857Y-92897808D01*
X83725857Y-92897808D02*
X84011571Y-92897808D01*
X84011571Y-92897808D02*
X84106809Y-92945427D01*
X84106809Y-92945427D02*
X84154428Y-92993046D01*
X84154428Y-92993046D02*
X84202047Y-93088284D01*
X84202047Y-93088284D02*
X84202047Y-93231141D01*
X84202047Y-93231141D02*
X84154428Y-93326379D01*
X84154428Y-93326379D02*
X84106809Y-93373998D01*
X84106809Y-93373998D02*
X84011571Y-93421617D01*
X84011571Y-93421617D02*
X83725857Y-93421617D01*
X83725857Y-93421617D02*
X83630619Y-93373998D01*
X83630619Y-93373998D02*
X83583000Y-93326379D01*
X83583000Y-93326379D02*
X83535380Y-93231141D01*
X83535380Y-93231141D02*
X83535380Y-93088284D01*
X84202047Y-93754951D02*
X83535380Y-93945427D01*
X83535380Y-93945427D02*
X84011571Y-94135903D01*
X84011571Y-94135903D02*
X83535380Y-94326379D01*
X83535380Y-94326379D02*
X84202047Y-94516855D01*
X83583000Y-94945427D02*
X83535380Y-94945427D01*
X83535380Y-94945427D02*
X83440142Y-94897808D01*
X83440142Y-94897808D02*
X83392523Y-94850189D01*
X83535380Y-96135903D02*
X84535380Y-96135903D01*
X84535380Y-96135903D02*
X83821095Y-96469236D01*
X83821095Y-96469236D02*
X84535380Y-96802569D01*
X84535380Y-96802569D02*
X83535380Y-96802569D01*
X83535380Y-97707331D02*
X84059190Y-97707331D01*
X84059190Y-97707331D02*
X84154428Y-97659712D01*
X84154428Y-97659712D02*
X84202047Y-97564474D01*
X84202047Y-97564474D02*
X84202047Y-97373998D01*
X84202047Y-97373998D02*
X84154428Y-97278760D01*
X83583000Y-97707331D02*
X83535380Y-97612093D01*
X83535380Y-97612093D02*
X83535380Y-97373998D01*
X83535380Y-97373998D02*
X83583000Y-97278760D01*
X83583000Y-97278760D02*
X83678238Y-97231141D01*
X83678238Y-97231141D02*
X83773476Y-97231141D01*
X83773476Y-97231141D02*
X83868714Y-97278760D01*
X83868714Y-97278760D02*
X83916333Y-97373998D01*
X83916333Y-97373998D02*
X83916333Y-97612093D01*
X83916333Y-97612093D02*
X83963952Y-97707331D01*
X83535380Y-98183522D02*
X84202047Y-98183522D01*
X84011571Y-98183522D02*
X84106809Y-98231141D01*
X84106809Y-98231141D02*
X84154428Y-98278760D01*
X84154428Y-98278760D02*
X84202047Y-98373998D01*
X84202047Y-98373998D02*
X84202047Y-98469236D01*
X83583000Y-99231141D02*
X83535380Y-99135903D01*
X83535380Y-99135903D02*
X83535380Y-98945427D01*
X83535380Y-98945427D02*
X83583000Y-98850189D01*
X83583000Y-98850189D02*
X83630619Y-98802570D01*
X83630619Y-98802570D02*
X83725857Y-98754951D01*
X83725857Y-98754951D02*
X84011571Y-98754951D01*
X84011571Y-98754951D02*
X84106809Y-98802570D01*
X84106809Y-98802570D02*
X84154428Y-98850189D01*
X84154428Y-98850189D02*
X84202047Y-98945427D01*
X84202047Y-98945427D02*
X84202047Y-99135903D01*
X84202047Y-99135903D02*
X84154428Y-99231141D01*
X83535380Y-99659713D02*
X84535380Y-99659713D01*
X83535380Y-100088284D02*
X84059190Y-100088284D01*
X84059190Y-100088284D02*
X84154428Y-100040665D01*
X84154428Y-100040665D02*
X84202047Y-99945427D01*
X84202047Y-99945427D02*
X84202047Y-99802570D01*
X84202047Y-99802570D02*
X84154428Y-99707332D01*
X84154428Y-99707332D02*
X84106809Y-99659713D01*
X84440142Y-101278761D02*
X84487761Y-101326380D01*
X84487761Y-101326380D02*
X84535380Y-101421618D01*
X84535380Y-101421618D02*
X84535380Y-101659713D01*
X84535380Y-101659713D02*
X84487761Y-101754951D01*
X84487761Y-101754951D02*
X84440142Y-101802570D01*
X84440142Y-101802570D02*
X84344904Y-101850189D01*
X84344904Y-101850189D02*
X84249666Y-101850189D01*
X84249666Y-101850189D02*
X84106809Y-101802570D01*
X84106809Y-101802570D02*
X83535380Y-101231142D01*
X83535380Y-101231142D02*
X83535380Y-101850189D01*
X84535380Y-102469237D02*
X84535380Y-102564475D01*
X84535380Y-102564475D02*
X84487761Y-102659713D01*
X84487761Y-102659713D02*
X84440142Y-102707332D01*
X84440142Y-102707332D02*
X84344904Y-102754951D01*
X84344904Y-102754951D02*
X84154428Y-102802570D01*
X84154428Y-102802570D02*
X83916333Y-102802570D01*
X83916333Y-102802570D02*
X83725857Y-102754951D01*
X83725857Y-102754951D02*
X83630619Y-102707332D01*
X83630619Y-102707332D02*
X83583000Y-102659713D01*
X83583000Y-102659713D02*
X83535380Y-102564475D01*
X83535380Y-102564475D02*
X83535380Y-102469237D01*
X83535380Y-102469237D02*
X83583000Y-102373999D01*
X83583000Y-102373999D02*
X83630619Y-102326380D01*
X83630619Y-102326380D02*
X83725857Y-102278761D01*
X83725857Y-102278761D02*
X83916333Y-102231142D01*
X83916333Y-102231142D02*
X84154428Y-102231142D01*
X84154428Y-102231142D02*
X84344904Y-102278761D01*
X84344904Y-102278761D02*
X84440142Y-102326380D01*
X84440142Y-102326380D02*
X84487761Y-102373999D01*
X84487761Y-102373999D02*
X84535380Y-102469237D01*
X84440142Y-103183523D02*
X84487761Y-103231142D01*
X84487761Y-103231142D02*
X84535380Y-103326380D01*
X84535380Y-103326380D02*
X84535380Y-103564475D01*
X84535380Y-103564475D02*
X84487761Y-103659713D01*
X84487761Y-103659713D02*
X84440142Y-103707332D01*
X84440142Y-103707332D02*
X84344904Y-103754951D01*
X84344904Y-103754951D02*
X84249666Y-103754951D01*
X84249666Y-103754951D02*
X84106809Y-103707332D01*
X84106809Y-103707332D02*
X83535380Y-103135904D01*
X83535380Y-103135904D02*
X83535380Y-103754951D01*
X84202047Y-104612094D02*
X83535380Y-104612094D01*
X84583000Y-104373999D02*
X83868714Y-104135904D01*
X83868714Y-104135904D02*
X83868714Y-104754951D01*
X83583000Y-105183523D02*
X83535380Y-105183523D01*
X83535380Y-105183523D02*
X83440142Y-105135904D01*
X83440142Y-105135904D02*
X83392523Y-105088285D01*
X84202047Y-106278761D02*
X83535380Y-106516856D01*
X83535380Y-106516856D02*
X84202047Y-106754951D01*
X83535380Y-107659713D02*
X83535380Y-107088285D01*
X83535380Y-107373999D02*
X84535380Y-107373999D01*
X84535380Y-107373999D02*
X84392523Y-107278761D01*
X84392523Y-107278761D02*
X84297285Y-107183523D01*
X84297285Y-107183523D02*
X84249666Y-107088285D01*
D10*
X49303207Y-86072936D02*
X49255588Y-86120556D01*
X49255588Y-86120556D02*
X49112731Y-86168175D01*
X49112731Y-86168175D02*
X49017493Y-86168175D01*
X49017493Y-86168175D02*
X48874636Y-86120556D01*
X48874636Y-86120556D02*
X48779398Y-86025317D01*
X48779398Y-86025317D02*
X48731779Y-85930079D01*
X48731779Y-85930079D02*
X48684160Y-85739603D01*
X48684160Y-85739603D02*
X48684160Y-85596746D01*
X48684160Y-85596746D02*
X48731779Y-85406270D01*
X48731779Y-85406270D02*
X48779398Y-85311032D01*
X48779398Y-85311032D02*
X48874636Y-85215794D01*
X48874636Y-85215794D02*
X49017493Y-85168175D01*
X49017493Y-85168175D02*
X49112731Y-85168175D01*
X49112731Y-85168175D02*
X49255588Y-85215794D01*
X49255588Y-85215794D02*
X49303207Y-85263413D01*
X49731779Y-86168175D02*
X49731779Y-85168175D01*
X49731779Y-85168175D02*
X50112731Y-85168175D01*
X50112731Y-85168175D02*
X50207969Y-85215794D01*
X50207969Y-85215794D02*
X50255588Y-85263413D01*
X50255588Y-85263413D02*
X50303207Y-85358651D01*
X50303207Y-85358651D02*
X50303207Y-85501508D01*
X50303207Y-85501508D02*
X50255588Y-85596746D01*
X50255588Y-85596746D02*
X50207969Y-85644365D01*
X50207969Y-85644365D02*
X50112731Y-85691984D01*
X50112731Y-85691984D02*
X49731779Y-85691984D01*
X50731779Y-85168175D02*
X50731779Y-85977698D01*
X50731779Y-85977698D02*
X50779398Y-86072936D01*
X50779398Y-86072936D02*
X50827017Y-86120556D01*
X50827017Y-86120556D02*
X50922255Y-86168175D01*
X50922255Y-86168175D02*
X51112731Y-86168175D01*
X51112731Y-86168175D02*
X51207969Y-86120556D01*
X51207969Y-86120556D02*
X51255588Y-86072936D01*
X51255588Y-86072936D02*
X51303207Y-85977698D01*
X51303207Y-85977698D02*
X51303207Y-85168175D01*
X49303207Y-87682880D02*
X49255588Y-87730500D01*
X49255588Y-87730500D02*
X49112731Y-87778119D01*
X49112731Y-87778119D02*
X49017493Y-87778119D01*
X49017493Y-87778119D02*
X48874636Y-87730500D01*
X48874636Y-87730500D02*
X48779398Y-87635261D01*
X48779398Y-87635261D02*
X48731779Y-87540023D01*
X48731779Y-87540023D02*
X48684160Y-87349547D01*
X48684160Y-87349547D02*
X48684160Y-87206690D01*
X48684160Y-87206690D02*
X48731779Y-87016214D01*
X48731779Y-87016214D02*
X48779398Y-86920976D01*
X48779398Y-86920976D02*
X48874636Y-86825738D01*
X48874636Y-86825738D02*
X49017493Y-86778119D01*
X49017493Y-86778119D02*
X49112731Y-86778119D01*
X49112731Y-86778119D02*
X49255588Y-86825738D01*
X49255588Y-86825738D02*
X49303207Y-86873357D01*
X49874636Y-87778119D02*
X49779398Y-87730500D01*
X49779398Y-87730500D02*
X49731779Y-87635261D01*
X49731779Y-87635261D02*
X49731779Y-86778119D01*
X50398446Y-87778119D02*
X50303208Y-87730500D01*
X50303208Y-87730500D02*
X50255589Y-87682880D01*
X50255589Y-87682880D02*
X50207970Y-87587642D01*
X50207970Y-87587642D02*
X50207970Y-87301928D01*
X50207970Y-87301928D02*
X50255589Y-87206690D01*
X50255589Y-87206690D02*
X50303208Y-87159071D01*
X50303208Y-87159071D02*
X50398446Y-87111452D01*
X50398446Y-87111452D02*
X50541303Y-87111452D01*
X50541303Y-87111452D02*
X50636541Y-87159071D01*
X50636541Y-87159071D02*
X50684160Y-87206690D01*
X50684160Y-87206690D02*
X50731779Y-87301928D01*
X50731779Y-87301928D02*
X50731779Y-87587642D01*
X50731779Y-87587642D02*
X50684160Y-87682880D01*
X50684160Y-87682880D02*
X50636541Y-87730500D01*
X50636541Y-87730500D02*
X50541303Y-87778119D01*
X50541303Y-87778119D02*
X50398446Y-87778119D01*
X51588922Y-87730500D02*
X51493684Y-87778119D01*
X51493684Y-87778119D02*
X51303208Y-87778119D01*
X51303208Y-87778119D02*
X51207970Y-87730500D01*
X51207970Y-87730500D02*
X51160351Y-87682880D01*
X51160351Y-87682880D02*
X51112732Y-87587642D01*
X51112732Y-87587642D02*
X51112732Y-87301928D01*
X51112732Y-87301928D02*
X51160351Y-87206690D01*
X51160351Y-87206690D02*
X51207970Y-87159071D01*
X51207970Y-87159071D02*
X51303208Y-87111452D01*
X51303208Y-87111452D02*
X51493684Y-87111452D01*
X51493684Y-87111452D02*
X51588922Y-87159071D01*
X52017494Y-87778119D02*
X52017494Y-86778119D01*
X52112732Y-87397166D02*
X52398446Y-87778119D01*
X52398446Y-87111452D02*
X52017494Y-87492404D01*
D12*
X61054510Y-112300828D02*
X61054510Y-110800828D01*
X61054510Y-110800828D02*
X61554510Y-111872257D01*
X61554510Y-111872257D02*
X62054510Y-110800828D01*
X62054510Y-110800828D02*
X62054510Y-112300828D01*
X63625939Y-112157971D02*
X63554511Y-112229400D01*
X63554511Y-112229400D02*
X63340225Y-112300828D01*
X63340225Y-112300828D02*
X63197368Y-112300828D01*
X63197368Y-112300828D02*
X62983082Y-112229400D01*
X62983082Y-112229400D02*
X62840225Y-112086542D01*
X62840225Y-112086542D02*
X62768796Y-111943685D01*
X62768796Y-111943685D02*
X62697368Y-111657971D01*
X62697368Y-111657971D02*
X62697368Y-111443685D01*
X62697368Y-111443685D02*
X62768796Y-111157971D01*
X62768796Y-111157971D02*
X62840225Y-111015114D01*
X62840225Y-111015114D02*
X62983082Y-110872257D01*
X62983082Y-110872257D02*
X63197368Y-110800828D01*
X63197368Y-110800828D02*
X63340225Y-110800828D01*
X63340225Y-110800828D02*
X63554511Y-110872257D01*
X63554511Y-110872257D02*
X63625939Y-110943685D01*
X64911654Y-110800828D02*
X64625939Y-110800828D01*
X64625939Y-110800828D02*
X64483082Y-110872257D01*
X64483082Y-110872257D02*
X64411654Y-110943685D01*
X64411654Y-110943685D02*
X64268796Y-111157971D01*
X64268796Y-111157971D02*
X64197368Y-111443685D01*
X64197368Y-111443685D02*
X64197368Y-112015114D01*
X64197368Y-112015114D02*
X64268796Y-112157971D01*
X64268796Y-112157971D02*
X64340225Y-112229400D01*
X64340225Y-112229400D02*
X64483082Y-112300828D01*
X64483082Y-112300828D02*
X64768796Y-112300828D01*
X64768796Y-112300828D02*
X64911654Y-112229400D01*
X64911654Y-112229400D02*
X64983082Y-112157971D01*
X64983082Y-112157971D02*
X65054511Y-112015114D01*
X65054511Y-112015114D02*
X65054511Y-111657971D01*
X65054511Y-111657971D02*
X64983082Y-111515114D01*
X64983082Y-111515114D02*
X64911654Y-111443685D01*
X64911654Y-111443685D02*
X64768796Y-111372257D01*
X64768796Y-111372257D02*
X64483082Y-111372257D01*
X64483082Y-111372257D02*
X64340225Y-111443685D01*
X64340225Y-111443685D02*
X64268796Y-111515114D01*
X64268796Y-111515114D02*
X64197368Y-111657971D01*
X65911653Y-111443685D02*
X65768796Y-111372257D01*
X65768796Y-111372257D02*
X65697367Y-111300828D01*
X65697367Y-111300828D02*
X65625939Y-111157971D01*
X65625939Y-111157971D02*
X65625939Y-111086542D01*
X65625939Y-111086542D02*
X65697367Y-110943685D01*
X65697367Y-110943685D02*
X65768796Y-110872257D01*
X65768796Y-110872257D02*
X65911653Y-110800828D01*
X65911653Y-110800828D02*
X66197367Y-110800828D01*
X66197367Y-110800828D02*
X66340225Y-110872257D01*
X66340225Y-110872257D02*
X66411653Y-110943685D01*
X66411653Y-110943685D02*
X66483082Y-111086542D01*
X66483082Y-111086542D02*
X66483082Y-111157971D01*
X66483082Y-111157971D02*
X66411653Y-111300828D01*
X66411653Y-111300828D02*
X66340225Y-111372257D01*
X66340225Y-111372257D02*
X66197367Y-111443685D01*
X66197367Y-111443685D02*
X65911653Y-111443685D01*
X65911653Y-111443685D02*
X65768796Y-111515114D01*
X65768796Y-111515114D02*
X65697367Y-111586542D01*
X65697367Y-111586542D02*
X65625939Y-111729400D01*
X65625939Y-111729400D02*
X65625939Y-112015114D01*
X65625939Y-112015114D02*
X65697367Y-112157971D01*
X65697367Y-112157971D02*
X65768796Y-112229400D01*
X65768796Y-112229400D02*
X65911653Y-112300828D01*
X65911653Y-112300828D02*
X66197367Y-112300828D01*
X66197367Y-112300828D02*
X66340225Y-112229400D01*
X66340225Y-112229400D02*
X66411653Y-112157971D01*
X66411653Y-112157971D02*
X66483082Y-112015114D01*
X66483082Y-112015114D02*
X66483082Y-111729400D01*
X66483082Y-111729400D02*
X66411653Y-111586542D01*
X66411653Y-111586542D02*
X66340225Y-111515114D01*
X66340225Y-111515114D02*
X66197367Y-111443685D01*
X67340224Y-111443685D02*
X67197367Y-111372257D01*
X67197367Y-111372257D02*
X67125938Y-111300828D01*
X67125938Y-111300828D02*
X67054510Y-111157971D01*
X67054510Y-111157971D02*
X67054510Y-111086542D01*
X67054510Y-111086542D02*
X67125938Y-110943685D01*
X67125938Y-110943685D02*
X67197367Y-110872257D01*
X67197367Y-110872257D02*
X67340224Y-110800828D01*
X67340224Y-110800828D02*
X67625938Y-110800828D01*
X67625938Y-110800828D02*
X67768796Y-110872257D01*
X67768796Y-110872257D02*
X67840224Y-110943685D01*
X67840224Y-110943685D02*
X67911653Y-111086542D01*
X67911653Y-111086542D02*
X67911653Y-111157971D01*
X67911653Y-111157971D02*
X67840224Y-111300828D01*
X67840224Y-111300828D02*
X67768796Y-111372257D01*
X67768796Y-111372257D02*
X67625938Y-111443685D01*
X67625938Y-111443685D02*
X67340224Y-111443685D01*
X67340224Y-111443685D02*
X67197367Y-111515114D01*
X67197367Y-111515114D02*
X67125938Y-111586542D01*
X67125938Y-111586542D02*
X67054510Y-111729400D01*
X67054510Y-111729400D02*
X67054510Y-112015114D01*
X67054510Y-112015114D02*
X67125938Y-112157971D01*
X67125938Y-112157971D02*
X67197367Y-112229400D01*
X67197367Y-112229400D02*
X67340224Y-112300828D01*
X67340224Y-112300828D02*
X67625938Y-112300828D01*
X67625938Y-112300828D02*
X67768796Y-112229400D01*
X67768796Y-112229400D02*
X67840224Y-112157971D01*
X67840224Y-112157971D02*
X67911653Y-112015114D01*
X67911653Y-112015114D02*
X67911653Y-111729400D01*
X67911653Y-111729400D02*
X67840224Y-111586542D01*
X67840224Y-111586542D02*
X67768796Y-111515114D01*
X67768796Y-111515114D02*
X67625938Y-111443685D01*
X68768795Y-111443685D02*
X68625938Y-111372257D01*
X68625938Y-111372257D02*
X68554509Y-111300828D01*
X68554509Y-111300828D02*
X68483081Y-111157971D01*
X68483081Y-111157971D02*
X68483081Y-111086542D01*
X68483081Y-111086542D02*
X68554509Y-110943685D01*
X68554509Y-110943685D02*
X68625938Y-110872257D01*
X68625938Y-110872257D02*
X68768795Y-110800828D01*
X68768795Y-110800828D02*
X69054509Y-110800828D01*
X69054509Y-110800828D02*
X69197367Y-110872257D01*
X69197367Y-110872257D02*
X69268795Y-110943685D01*
X69268795Y-110943685D02*
X69340224Y-111086542D01*
X69340224Y-111086542D02*
X69340224Y-111157971D01*
X69340224Y-111157971D02*
X69268795Y-111300828D01*
X69268795Y-111300828D02*
X69197367Y-111372257D01*
X69197367Y-111372257D02*
X69054509Y-111443685D01*
X69054509Y-111443685D02*
X68768795Y-111443685D01*
X68768795Y-111443685D02*
X68625938Y-111515114D01*
X68625938Y-111515114D02*
X68554509Y-111586542D01*
X68554509Y-111586542D02*
X68483081Y-111729400D01*
X68483081Y-111729400D02*
X68483081Y-112015114D01*
X68483081Y-112015114D02*
X68554509Y-112157971D01*
X68554509Y-112157971D02*
X68625938Y-112229400D01*
X68625938Y-112229400D02*
X68768795Y-112300828D01*
X68768795Y-112300828D02*
X69054509Y-112300828D01*
X69054509Y-112300828D02*
X69197367Y-112229400D01*
X69197367Y-112229400D02*
X69268795Y-112157971D01*
X69268795Y-112157971D02*
X69340224Y-112015114D01*
X69340224Y-112015114D02*
X69340224Y-111729400D01*
X69340224Y-111729400D02*
X69268795Y-111586542D01*
X69268795Y-111586542D02*
X69197367Y-111515114D01*
X69197367Y-111515114D02*
X69054509Y-111443685D01*
X69911652Y-110943685D02*
X69983080Y-110872257D01*
X69983080Y-110872257D02*
X70125938Y-110800828D01*
X70125938Y-110800828D02*
X70483080Y-110800828D01*
X70483080Y-110800828D02*
X70625938Y-110872257D01*
X70625938Y-110872257D02*
X70697366Y-110943685D01*
X70697366Y-110943685D02*
X70768795Y-111086542D01*
X70768795Y-111086542D02*
X70768795Y-111229400D01*
X70768795Y-111229400D02*
X70697366Y-111443685D01*
X70697366Y-111443685D02*
X69840223Y-112300828D01*
X69840223Y-112300828D02*
X70768795Y-112300828D01*
D10*
X72265350Y-86703152D02*
X72265350Y-87369819D01*
X72027255Y-86322200D02*
X71789160Y-87036485D01*
X71789160Y-87036485D02*
X72408207Y-87036485D01*
X72979636Y-86369819D02*
X73074874Y-86369819D01*
X73074874Y-86369819D02*
X73170112Y-86417438D01*
X73170112Y-86417438D02*
X73217731Y-86465057D01*
X73217731Y-86465057D02*
X73265350Y-86560295D01*
X73265350Y-86560295D02*
X73312969Y-86750771D01*
X73312969Y-86750771D02*
X73312969Y-86988866D01*
X73312969Y-86988866D02*
X73265350Y-87179342D01*
X73265350Y-87179342D02*
X73217731Y-87274580D01*
X73217731Y-87274580D02*
X73170112Y-87322200D01*
X73170112Y-87322200D02*
X73074874Y-87369819D01*
X73074874Y-87369819D02*
X72979636Y-87369819D01*
X72979636Y-87369819D02*
X72884398Y-87322200D01*
X72884398Y-87322200D02*
X72836779Y-87274580D01*
X72836779Y-87274580D02*
X72789160Y-87179342D01*
X72789160Y-87179342D02*
X72741541Y-86988866D01*
X72741541Y-86988866D02*
X72741541Y-86750771D01*
X72741541Y-86750771D02*
X72789160Y-86560295D01*
X72789160Y-86560295D02*
X72836779Y-86465057D01*
X72836779Y-86465057D02*
X72884398Y-86417438D01*
X72884398Y-86417438D02*
X72979636Y-86369819D01*
X73741541Y-87369819D02*
X73741541Y-86369819D01*
X73741541Y-86369819D02*
X74074874Y-87084104D01*
X74074874Y-87084104D02*
X74408207Y-86369819D01*
X74408207Y-86369819D02*
X74408207Y-87369819D01*
X74884398Y-87369819D02*
X74884398Y-86369819D01*
X74884398Y-86846009D02*
X75455826Y-86846009D01*
X75455826Y-87369819D02*
X75455826Y-86369819D01*
X75836779Y-86703152D02*
X76360588Y-86703152D01*
X76360588Y-86703152D02*
X75836779Y-87369819D01*
X75836779Y-87369819D02*
X76360588Y-87369819D01*
X58022255Y-89503119D02*
X58212731Y-89503119D01*
X58212731Y-89503119D02*
X58307969Y-89550738D01*
X58307969Y-89550738D02*
X58403207Y-89645976D01*
X58403207Y-89645976D02*
X58450826Y-89836452D01*
X58450826Y-89836452D02*
X58450826Y-90169785D01*
X58450826Y-90169785D02*
X58403207Y-90360261D01*
X58403207Y-90360261D02*
X58307969Y-90455500D01*
X58307969Y-90455500D02*
X58212731Y-90503119D01*
X58212731Y-90503119D02*
X58022255Y-90503119D01*
X58022255Y-90503119D02*
X57927017Y-90455500D01*
X57927017Y-90455500D02*
X57831779Y-90360261D01*
X57831779Y-90360261D02*
X57784160Y-90169785D01*
X57784160Y-90169785D02*
X57784160Y-89836452D01*
X57784160Y-89836452D02*
X57831779Y-89645976D01*
X57831779Y-89645976D02*
X57927017Y-89550738D01*
X57927017Y-89550738D02*
X58022255Y-89503119D01*
X58831779Y-90455500D02*
X58974636Y-90503119D01*
X58974636Y-90503119D02*
X59212731Y-90503119D01*
X59212731Y-90503119D02*
X59307969Y-90455500D01*
X59307969Y-90455500D02*
X59355588Y-90407880D01*
X59355588Y-90407880D02*
X59403207Y-90312642D01*
X59403207Y-90312642D02*
X59403207Y-90217404D01*
X59403207Y-90217404D02*
X59355588Y-90122166D01*
X59355588Y-90122166D02*
X59307969Y-90074547D01*
X59307969Y-90074547D02*
X59212731Y-90026928D01*
X59212731Y-90026928D02*
X59022255Y-89979309D01*
X59022255Y-89979309D02*
X58927017Y-89931690D01*
X58927017Y-89931690D02*
X58879398Y-89884071D01*
X58879398Y-89884071D02*
X58831779Y-89788833D01*
X58831779Y-89788833D02*
X58831779Y-89693595D01*
X58831779Y-89693595D02*
X58879398Y-89598357D01*
X58879398Y-89598357D02*
X58927017Y-89550738D01*
X58927017Y-89550738D02*
X59022255Y-89503119D01*
X59022255Y-89503119D02*
X59260350Y-89503119D01*
X59260350Y-89503119D02*
X59403207Y-89550738D01*
X60403207Y-90407880D02*
X60355588Y-90455500D01*
X60355588Y-90455500D02*
X60212731Y-90503119D01*
X60212731Y-90503119D02*
X60117493Y-90503119D01*
X60117493Y-90503119D02*
X59974636Y-90455500D01*
X59974636Y-90455500D02*
X59879398Y-90360261D01*
X59879398Y-90360261D02*
X59831779Y-90265023D01*
X59831779Y-90265023D02*
X59784160Y-90074547D01*
X59784160Y-90074547D02*
X59784160Y-89931690D01*
X59784160Y-89931690D02*
X59831779Y-89741214D01*
X59831779Y-89741214D02*
X59879398Y-89645976D01*
X59879398Y-89645976D02*
X59974636Y-89550738D01*
X59974636Y-89550738D02*
X60117493Y-89503119D01*
X60117493Y-89503119D02*
X60212731Y-89503119D01*
X60212731Y-89503119D02*
X60355588Y-89550738D01*
X60355588Y-89550738D02*
X60403207Y-89598357D01*
D12*
X60483082Y-69372257D02*
X61197368Y-69372257D01*
X60340225Y-69800828D02*
X60840225Y-68300828D01*
X60840225Y-68300828D02*
X61340225Y-69800828D01*
X61625939Y-68300828D02*
X62483082Y-68300828D01*
X62054510Y-69800828D02*
X62054510Y-68300828D01*
X63483081Y-69015114D02*
X62983081Y-69015114D01*
X62983081Y-69800828D02*
X62983081Y-68300828D01*
X62983081Y-68300828D02*
X63697367Y-68300828D01*
X64197367Y-68443685D02*
X64268795Y-68372257D01*
X64268795Y-68372257D02*
X64411653Y-68300828D01*
X64411653Y-68300828D02*
X64768795Y-68300828D01*
X64768795Y-68300828D02*
X64911653Y-68372257D01*
X64911653Y-68372257D02*
X64983081Y-68443685D01*
X64983081Y-68443685D02*
X65054510Y-68586542D01*
X65054510Y-68586542D02*
X65054510Y-68729400D01*
X65054510Y-68729400D02*
X64983081Y-68943685D01*
X64983081Y-68943685D02*
X64125938Y-69800828D01*
X64125938Y-69800828D02*
X65054510Y-69800828D01*
X65625938Y-68443685D02*
X65697366Y-68372257D01*
X65697366Y-68372257D02*
X65840224Y-68300828D01*
X65840224Y-68300828D02*
X66197366Y-68300828D01*
X66197366Y-68300828D02*
X66340224Y-68372257D01*
X66340224Y-68372257D02*
X66411652Y-68443685D01*
X66411652Y-68443685D02*
X66483081Y-68586542D01*
X66483081Y-68586542D02*
X66483081Y-68729400D01*
X66483081Y-68729400D02*
X66411652Y-68943685D01*
X66411652Y-68943685D02*
X65554509Y-69800828D01*
X65554509Y-69800828D02*
X66483081Y-69800828D01*
X66911652Y-68300828D02*
X67411652Y-69800828D01*
X67411652Y-69800828D02*
X67911652Y-68300828D01*
X69197366Y-69800828D02*
X68340223Y-69800828D01*
X68768794Y-69800828D02*
X68768794Y-68300828D01*
X68768794Y-68300828D02*
X68625937Y-68515114D01*
X68625937Y-68515114D02*
X68483080Y-68657971D01*
X68483080Y-68657971D02*
X68340223Y-68729400D01*
X70125937Y-68300828D02*
X70268794Y-68300828D01*
X70268794Y-68300828D02*
X70411651Y-68372257D01*
X70411651Y-68372257D02*
X70483080Y-68443685D01*
X70483080Y-68443685D02*
X70554508Y-68586542D01*
X70554508Y-68586542D02*
X70625937Y-68872257D01*
X70625937Y-68872257D02*
X70625937Y-69229400D01*
X70625937Y-69229400D02*
X70554508Y-69515114D01*
X70554508Y-69515114D02*
X70483080Y-69657971D01*
X70483080Y-69657971D02*
X70411651Y-69729400D01*
X70411651Y-69729400D02*
X70268794Y-69800828D01*
X70268794Y-69800828D02*
X70125937Y-69800828D01*
X70125937Y-69800828D02*
X69983080Y-69729400D01*
X69983080Y-69729400D02*
X69911651Y-69657971D01*
X69911651Y-69657971D02*
X69840222Y-69515114D01*
X69840222Y-69515114D02*
X69768794Y-69229400D01*
X69768794Y-69229400D02*
X69768794Y-68872257D01*
X69768794Y-68872257D02*
X69840222Y-68586542D01*
X69840222Y-68586542D02*
X69911651Y-68443685D01*
X69911651Y-68443685D02*
X69983080Y-68372257D01*
X69983080Y-68372257D02*
X70125937Y-68300828D01*
D10*
X54686666Y-82908119D02*
X54686666Y-83622404D01*
X54686666Y-83622404D02*
X54639047Y-83765261D01*
X54639047Y-83765261D02*
X54543809Y-83860500D01*
X54543809Y-83860500D02*
X54400952Y-83908119D01*
X54400952Y-83908119D02*
X54305714Y-83908119D01*
X55686666Y-83908119D02*
X55115238Y-83908119D01*
X55400952Y-83908119D02*
X55400952Y-82908119D01*
X55400952Y-82908119D02*
X55305714Y-83050976D01*
X55305714Y-83050976D02*
X55210476Y-83146214D01*
X55210476Y-83146214D02*
X55115238Y-83193833D01*
X63454819Y-88666666D02*
X62978628Y-88999999D01*
X63454819Y-89238094D02*
X62454819Y-89238094D01*
X62454819Y-89238094D02*
X62454819Y-88857142D01*
X62454819Y-88857142D02*
X62502438Y-88761904D01*
X62502438Y-88761904D02*
X62550057Y-88714285D01*
X62550057Y-88714285D02*
X62645295Y-88666666D01*
X62645295Y-88666666D02*
X62788152Y-88666666D01*
X62788152Y-88666666D02*
X62883390Y-88714285D01*
X62883390Y-88714285D02*
X62931009Y-88761904D01*
X62931009Y-88761904D02*
X62978628Y-88857142D01*
X62978628Y-88857142D02*
X62978628Y-89238094D01*
X63454819Y-87714285D02*
X63454819Y-88285713D01*
X63454819Y-87999999D02*
X62454819Y-87999999D01*
X62454819Y-87999999D02*
X62597676Y-88095237D01*
X62597676Y-88095237D02*
X62692914Y-88190475D01*
X62692914Y-88190475D02*
X62740533Y-88285713D01*
X51039580Y-60041566D02*
X51087200Y-60089185D01*
X51087200Y-60089185D02*
X51134819Y-60232042D01*
X51134819Y-60232042D02*
X51134819Y-60327280D01*
X51134819Y-60327280D02*
X51087200Y-60470137D01*
X51087200Y-60470137D02*
X50991961Y-60565375D01*
X50991961Y-60565375D02*
X50896723Y-60612994D01*
X50896723Y-60612994D02*
X50706247Y-60660613D01*
X50706247Y-60660613D02*
X50563390Y-60660613D01*
X50563390Y-60660613D02*
X50372914Y-60612994D01*
X50372914Y-60612994D02*
X50277676Y-60565375D01*
X50277676Y-60565375D02*
X50182438Y-60470137D01*
X50182438Y-60470137D02*
X50134819Y-60327280D01*
X50134819Y-60327280D02*
X50134819Y-60232042D01*
X50134819Y-60232042D02*
X50182438Y-60089185D01*
X50182438Y-60089185D02*
X50230057Y-60041566D01*
X51134819Y-59565375D02*
X51134819Y-59374899D01*
X51134819Y-59374899D02*
X51087200Y-59279661D01*
X51087200Y-59279661D02*
X51039580Y-59232042D01*
X51039580Y-59232042D02*
X50896723Y-59136804D01*
X50896723Y-59136804D02*
X50706247Y-59089185D01*
X50706247Y-59089185D02*
X50325295Y-59089185D01*
X50325295Y-59089185D02*
X50230057Y-59136804D01*
X50230057Y-59136804D02*
X50182438Y-59184423D01*
X50182438Y-59184423D02*
X50134819Y-59279661D01*
X50134819Y-59279661D02*
X50134819Y-59470137D01*
X50134819Y-59470137D02*
X50182438Y-59565375D01*
X50182438Y-59565375D02*
X50230057Y-59612994D01*
X50230057Y-59612994D02*
X50325295Y-59660613D01*
X50325295Y-59660613D02*
X50563390Y-59660613D01*
X50563390Y-59660613D02*
X50658628Y-59612994D01*
X50658628Y-59612994D02*
X50706247Y-59565375D01*
X50706247Y-59565375D02*
X50753866Y-59470137D01*
X50753866Y-59470137D02*
X50753866Y-59279661D01*
X50753866Y-59279661D02*
X50706247Y-59184423D01*
X50706247Y-59184423D02*
X50658628Y-59136804D01*
X50658628Y-59136804D02*
X50563390Y-59089185D01*
X80924819Y-87809523D02*
X81924819Y-87142857D01*
X80924819Y-87142857D02*
X81924819Y-87809523D01*
X81924819Y-86238095D02*
X81924819Y-86809523D01*
X81924819Y-86523809D02*
X80924819Y-86523809D01*
X80924819Y-86523809D02*
X81067676Y-86619047D01*
X81067676Y-86619047D02*
X81162914Y-86714285D01*
X81162914Y-86714285D02*
X81210533Y-86809523D01*
D13*
X54380000Y-95880000D02*
X54380000Y-95945000D01*
X54380000Y-95880000D02*
X57620000Y-95880000D01*
X54380000Y-98055000D02*
X54380000Y-98120000D01*
X54380000Y-98120000D02*
X57620000Y-98120000D01*
X57620000Y-95880000D02*
X57620000Y-95945000D01*
X57620000Y-98055000D02*
X57620000Y-98120000D01*
X53690000Y-84453300D02*
X55020000Y-84453300D01*
X53690000Y-85783300D02*
X53690000Y-84453300D01*
X53690000Y-87053300D02*
X53690000Y-92193300D01*
X53690000Y-87053300D02*
X56350000Y-87053300D01*
X53690000Y-92193300D02*
X56350000Y-92193300D01*
X56350000Y-87053300D02*
X56350000Y-92193300D01*
X61630000Y-85230000D02*
X61630000Y-91770000D01*
X61630000Y-91770000D02*
X64370000Y-91770000D01*
X63000000Y-84460000D02*
X63000000Y-85230000D01*
X63000000Y-92540000D02*
X63000000Y-91770000D01*
X64370000Y-85230000D02*
X61630000Y-85230000D01*
X64370000Y-91770000D02*
X64370000Y-85230000D01*
X83380000Y-118880000D02*
X83380000Y-122120000D01*
X83445000Y-118880000D02*
X83380000Y-118880000D01*
X83445000Y-122120000D02*
X83380000Y-122120000D01*
X85620000Y-118880000D02*
X85555000Y-118880000D01*
X85620000Y-118880000D02*
X85620000Y-122120000D01*
X85620000Y-122120000D02*
X85555000Y-122120000D01*
X54880000Y-134880000D02*
X54880000Y-134945000D01*
X54880000Y-134880000D02*
X58120000Y-134880000D01*
X54880000Y-137055000D02*
X54880000Y-137120000D01*
X54880000Y-137120000D02*
X58120000Y-137120000D01*
X58120000Y-134880000D02*
X58120000Y-134945000D01*
X58120000Y-137055000D02*
X58120000Y-137120000D01*
X74880000Y-96380000D02*
X74880000Y-96445000D01*
X74880000Y-96380000D02*
X78120000Y-96380000D01*
X74880000Y-98555000D02*
X74880000Y-98620000D01*
X74880000Y-98620000D02*
X78120000Y-98620000D01*
X78120000Y-96380000D02*
X78120000Y-96445000D01*
X78120000Y-98555000D02*
X78120000Y-98620000D01*
X44880000Y-113880000D02*
X44945000Y-113880000D01*
X44880000Y-117120000D02*
X44880000Y-113880000D01*
X44880000Y-117120000D02*
X44945000Y-117120000D01*
X47055000Y-113880000D02*
X47120000Y-113880000D01*
X47055000Y-117120000D02*
X47120000Y-117120000D01*
X47120000Y-117120000D02*
X47120000Y-113880000D01*
X50210000Y-66780000D02*
X50210000Y-71280000D01*
X50210000Y-71280000D02*
X80810000Y-71280000D01*
X80810000Y-66780000D02*
X50210000Y-66780000D01*
X80810000Y-68030000D02*
X80810000Y-66780000D01*
X80810000Y-71280000D02*
X80810000Y-70030000D01*
X80810000Y-70030000D02*
G75*
G02*
X80810000Y-68030000I0J1000000D01*
G01*
X83380000Y-113380000D02*
X83445000Y-113380000D01*
X83380000Y-116620000D02*
X83380000Y-113380000D01*
X83380000Y-116620000D02*
X83445000Y-116620000D01*
X85555000Y-113380000D02*
X85620000Y-113380000D01*
X85555000Y-116620000D02*
X85620000Y-116620000D01*
X85620000Y-116620000D02*
X85620000Y-113380000D01*
X49475000Y-101175000D02*
X49475000Y-132425000D01*
X49475000Y-132425000D02*
X64100000Y-132425000D01*
X66100000Y-132425000D02*
X79725000Y-132425000D01*
X79725000Y-132425000D02*
X80725000Y-131425000D01*
X80725000Y-101175000D02*
X49475000Y-101175000D01*
X80725000Y-131425000D02*
X80725000Y-101175000D01*
X45890000Y-60114900D02*
X44361000Y-60114900D01*
X45890000Y-60154900D02*
X44365000Y-60154900D01*
X45890000Y-60194900D02*
X44369000Y-60194900D01*
X45890000Y-60234900D02*
X44374000Y-60234900D01*
X45890000Y-60274900D02*
X44380000Y-60274900D01*
X45890000Y-60314900D02*
X44387000Y-60314900D01*
X45890000Y-60354900D02*
X44394000Y-60354900D01*
X45890000Y-60394900D02*
X44402000Y-60394900D01*
X45890000Y-60434900D02*
X44410000Y-60434900D01*
X45890000Y-60474900D02*
X44419000Y-60474900D01*
X45890000Y-60514900D02*
X44429000Y-60514900D01*
X45890000Y-60554900D02*
X44439000Y-60554900D01*
X45890000Y-60595900D02*
X44450000Y-60595900D01*
X45890000Y-60635900D02*
X44462000Y-60635900D01*
X45890000Y-60675900D02*
X44475000Y-60675900D01*
X45890000Y-60715900D02*
X44488000Y-60715900D01*
X45890000Y-60755900D02*
X44502000Y-60755900D01*
X45890000Y-60795900D02*
X44516000Y-60795900D01*
X45890000Y-60835900D02*
X44532000Y-60835900D01*
X45890000Y-60875900D02*
X44548000Y-60875900D01*
X45890000Y-60915900D02*
X44565000Y-60915900D01*
X45890000Y-60955900D02*
X44582000Y-60955900D01*
X45890000Y-60995900D02*
X44601000Y-60995900D01*
X45890000Y-61035900D02*
X44620000Y-61035900D01*
X45890000Y-61075900D02*
X44640000Y-61075900D01*
X45890000Y-61115900D02*
X44662000Y-61115900D01*
X45890000Y-61155900D02*
X44683000Y-61155900D01*
X45890000Y-61195900D02*
X44706000Y-61195900D01*
X45890000Y-61235900D02*
X44730000Y-61235900D01*
X45890000Y-61275900D02*
X44755000Y-61275900D01*
X45890000Y-61315900D02*
X44781000Y-61315900D01*
X45890000Y-61355900D02*
X44808000Y-61355900D01*
X45890000Y-61395900D02*
X44835000Y-61395900D01*
X45890000Y-61435900D02*
X44865000Y-61435900D01*
X45890000Y-61475900D02*
X44895000Y-61475900D01*
X45890000Y-61515900D02*
X44926000Y-61515900D01*
X45890000Y-61555900D02*
X44959000Y-61555900D01*
X45890000Y-61595900D02*
X44993000Y-61595900D01*
X45890000Y-61635900D02*
X45029000Y-61635900D01*
X45890000Y-61675900D02*
X45066000Y-61675900D01*
X45890000Y-61715900D02*
X45104000Y-61715900D01*
X45890000Y-61755900D02*
X45145000Y-61755900D01*
X45890000Y-61795900D02*
X45187000Y-61795900D01*
X45890000Y-61835900D02*
X45231000Y-61835900D01*
X45890000Y-61875900D02*
X45277000Y-61875900D01*
X45890000Y-61915900D02*
X45325000Y-61915900D01*
X45890000Y-61955900D02*
X45376000Y-61955900D01*
X45890000Y-61995900D02*
X45430000Y-61995900D01*
X45890000Y-62035900D02*
X45487000Y-62035900D01*
X45890000Y-62075900D02*
X45547000Y-62075900D01*
X45890000Y-62115900D02*
X45611000Y-62115900D01*
X45890000Y-62155900D02*
X45679000Y-62155900D01*
X47214000Y-62475900D02*
X46646000Y-62475900D01*
X47448000Y-62435900D02*
X46412000Y-62435900D01*
X47607000Y-62395900D02*
X46253000Y-62395900D01*
X47735000Y-62355900D02*
X46125000Y-62355900D01*
X47845000Y-62315900D02*
X46015000Y-62315900D01*
X47941000Y-62275900D02*
X45919000Y-62275900D01*
X48028000Y-62235900D02*
X45832000Y-62235900D01*
X48108000Y-62195900D02*
X45752000Y-62195900D01*
X48181000Y-62155900D02*
X47970000Y-62155900D01*
X48249000Y-62115900D02*
X47970000Y-62115900D01*
X48313000Y-62075900D02*
X47970000Y-62075900D01*
X48373000Y-62035900D02*
X47970000Y-62035900D01*
X48405000Y-57070125D02*
X48405000Y-57570125D01*
X48430000Y-61995900D02*
X47970000Y-61995900D01*
X48484000Y-61955900D02*
X47970000Y-61955900D01*
X48535000Y-61915900D02*
X47970000Y-61915900D01*
X48583000Y-61875900D02*
X47970000Y-61875900D01*
X48629000Y-61835900D02*
X47970000Y-61835900D01*
X48655000Y-57320125D02*
X48155000Y-57320125D01*
X48673000Y-61795900D02*
X47970000Y-61795900D01*
X48715000Y-61755900D02*
X47970000Y-61755900D01*
X48756000Y-61715900D02*
X47970000Y-61715900D01*
X48794000Y-61675900D02*
X47970000Y-61675900D01*
X48831000Y-61635900D02*
X47970000Y-61635900D01*
X48867000Y-61595900D02*
X47970000Y-61595900D01*
X48901000Y-61555900D02*
X47970000Y-61555900D01*
X48934000Y-61515900D02*
X47970000Y-61515900D01*
X48965000Y-61475900D02*
X47970000Y-61475900D01*
X48995000Y-61435900D02*
X47970000Y-61435900D01*
X49025000Y-61395900D02*
X47970000Y-61395900D01*
X49052000Y-61355900D02*
X47970000Y-61355900D01*
X49079000Y-61315900D02*
X47970000Y-61315900D01*
X49105000Y-61275900D02*
X47970000Y-61275900D01*
X49130000Y-61235900D02*
X47970000Y-61235900D01*
X49154000Y-61195900D02*
X47970000Y-61195900D01*
X49177000Y-61155900D02*
X47970000Y-61155900D01*
X49198000Y-61115900D02*
X47970000Y-61115900D01*
X49220000Y-61075900D02*
X47970000Y-61075900D01*
X49240000Y-61035900D02*
X47970000Y-61035900D01*
X49259000Y-60995900D02*
X47970000Y-60995900D01*
X49278000Y-60955900D02*
X47970000Y-60955900D01*
X49295000Y-60915900D02*
X47970000Y-60915900D01*
X49312000Y-60875900D02*
X47970000Y-60875900D01*
X49328000Y-60835900D02*
X47970000Y-60835900D01*
X49344000Y-60795900D02*
X47970000Y-60795900D01*
X49358000Y-60755900D02*
X47970000Y-60755900D01*
X49372000Y-60715900D02*
X47970000Y-60715900D01*
X49385000Y-60675900D02*
X47970000Y-60675900D01*
X49398000Y-60635900D02*
X47970000Y-60635900D01*
X49410000Y-60595900D02*
X47970000Y-60595900D01*
X49421000Y-60554900D02*
X47970000Y-60554900D01*
X49431000Y-60514900D02*
X47970000Y-60514900D01*
X49441000Y-60474900D02*
X47970000Y-60474900D01*
X49450000Y-60434900D02*
X47970000Y-60434900D01*
X49458000Y-60394900D02*
X47970000Y-60394900D01*
X49466000Y-60354900D02*
X47970000Y-60354900D01*
X49473000Y-60314900D02*
X47970000Y-60314900D01*
X49480000Y-60274900D02*
X47970000Y-60274900D01*
X49486000Y-60234900D02*
X47970000Y-60234900D01*
X49491000Y-60194900D02*
X47970000Y-60194900D01*
X49495000Y-60154900D02*
X47970000Y-60154900D01*
X49499000Y-60114900D02*
X47970000Y-60114900D01*
X49503000Y-60074900D02*
X44357000Y-60074900D01*
X49506000Y-60034900D02*
X44354000Y-60034900D01*
X49508000Y-59994900D02*
X44352000Y-59994900D01*
X49509000Y-59954900D02*
X44351000Y-59954900D01*
X49510000Y-59874900D02*
X44350000Y-59874900D01*
X49510000Y-59914900D02*
X44350000Y-59914900D01*
X49550000Y-59874900D02*
G75*
G02*
X44310000Y-59874900I-2620000J0D01*
G01*
X44310000Y-59874900D02*
G75*
G02*
X49550000Y-59874900I2620000J0D01*
G01*
X83380000Y-124380000D02*
X83445000Y-124380000D01*
X83380000Y-127620000D02*
X83380000Y-124380000D01*
X83380000Y-127620000D02*
X83445000Y-127620000D01*
X85555000Y-124380000D02*
X85620000Y-124380000D01*
X85555000Y-127620000D02*
X85620000Y-127620000D01*
X85620000Y-127620000D02*
X85620000Y-124380000D01*
X75150000Y-76445000D02*
X75150000Y-76380000D01*
X75150000Y-78620000D02*
X75150000Y-78555000D01*
X78390000Y-76380000D02*
X75150000Y-76380000D01*
X78390000Y-76445000D02*
X78390000Y-76380000D01*
X78390000Y-78620000D02*
X75150000Y-78620000D01*
X78390000Y-78620000D02*
X78390000Y-78555000D01*
X37170000Y-58970000D02*
X38500000Y-58970000D01*
X37170000Y-60300000D02*
X37170000Y-58970000D01*
X37170000Y-61570000D02*
X37170000Y-140370000D01*
X37170000Y-61570000D02*
X39770000Y-61570000D01*
X37170000Y-140370000D02*
X42370000Y-140370000D01*
X39770000Y-58970000D02*
X42370000Y-58970000D01*
X39770000Y-61570000D02*
X39770000Y-58970000D01*
X42370000Y-58970000D02*
X42370000Y-140370000D01*
X82880000Y-67380000D02*
X82945000Y-67380000D01*
X82880000Y-70620000D02*
X82880000Y-67380000D01*
X82880000Y-70620000D02*
X82945000Y-70620000D01*
X85055000Y-67380000D02*
X85120000Y-67380000D01*
X85055000Y-70620000D02*
X85120000Y-70620000D01*
X85120000Y-70620000D02*
X85120000Y-67380000D01*
X67570000Y-80550000D02*
X67570000Y-92700000D01*
X68320000Y-93450000D02*
X79720000Y-93450000D01*
X79720000Y-80550000D02*
X67570000Y-80550000D01*
X80470000Y-92700000D02*
X80470000Y-81300000D01*
X68320000Y-93450000D02*
G75*
G02*
X67570000Y-92700000I0J750000D01*
G01*
X79720000Y-80550000D02*
G75*
G02*
X80470000Y-81300000I0J-750000D01*
G01*
X80470000Y-92700000D02*
G75*
G02*
X79720000Y-93450000I-750000J0D01*
G01*
%LPC*%
D14*
X54750000Y-97000000D03*
X57250000Y-97000000D03*
D15*
X55020000Y-85783300D03*
D16*
X55020000Y-88323300D03*
X55020000Y-90863300D03*
D14*
X63000000Y-83420000D03*
D17*
X63000000Y-93580000D03*
D14*
X84500000Y-119250000D03*
X84500000Y-121750000D03*
X55250000Y-136000000D03*
X57750000Y-136000000D03*
X75250000Y-97500000D03*
X77750000Y-97500000D03*
X46000000Y-116750000D03*
X46000000Y-114250000D03*
D18*
X79480000Y-65220000D03*
D19*
X76940000Y-65220000D03*
X74400000Y-65220000D03*
X71860000Y-65220000D03*
X69320000Y-65220000D03*
X66780000Y-65220000D03*
X64240000Y-65220000D03*
X61700000Y-65220000D03*
X59160000Y-65220000D03*
X56620000Y-65220000D03*
X54080000Y-65220000D03*
X51540000Y-65220000D03*
X51540000Y-72840000D03*
X54080000Y-72840000D03*
X56620000Y-72840000D03*
X59160000Y-72840000D03*
X61700000Y-72840000D03*
X64240000Y-72840000D03*
X66780000Y-72840000D03*
X69320000Y-72840000D03*
X71860000Y-72840000D03*
X74400000Y-72840000D03*
X76940000Y-72840000D03*
X79480000Y-72840000D03*
D14*
X84500000Y-116250000D03*
X84500000Y-113750000D03*
D20*
X65100000Y-129500000D03*
D21*
X65100000Y-126960000D03*
X67640000Y-129500000D03*
X67640000Y-126960000D03*
X70180000Y-129500000D03*
X70180000Y-126960000D03*
X72720000Y-129500000D03*
X72720000Y-126960000D03*
X75260000Y-129500000D03*
X77800000Y-126960000D03*
X75260000Y-126960000D03*
X77800000Y-124420000D03*
X75260000Y-124420000D03*
X77800000Y-121880000D03*
X75260000Y-121880000D03*
X77800000Y-119340000D03*
X75260000Y-119340000D03*
X77800000Y-116800000D03*
X75260000Y-116800000D03*
X77800000Y-114260000D03*
X75260000Y-114260000D03*
X77800000Y-111720000D03*
X75260000Y-111720000D03*
X77800000Y-109180000D03*
X75260000Y-109180000D03*
X77800000Y-106640000D03*
X75260000Y-104100000D03*
X75260000Y-106640000D03*
X72720000Y-104100000D03*
X72720000Y-106640000D03*
X70180000Y-104100000D03*
X70180000Y-106640000D03*
X67640000Y-104100000D03*
X67640000Y-106640000D03*
X65100000Y-104100000D03*
X65100000Y-106640000D03*
X62560000Y-104100000D03*
X62560000Y-106640000D03*
X60020000Y-104100000D03*
X60020000Y-106640000D03*
X57480000Y-104100000D03*
X57480000Y-106640000D03*
X54940000Y-104100000D03*
X52400000Y-106640000D03*
X54940000Y-106640000D03*
X52400000Y-109180000D03*
X54940000Y-109180000D03*
X52400000Y-111720000D03*
X54940000Y-111720000D03*
X52400000Y-114260000D03*
X54940000Y-114260000D03*
X52400000Y-116800000D03*
X54940000Y-116800000D03*
X52400000Y-119340000D03*
X54940000Y-119340000D03*
X52400000Y-121880000D03*
X54940000Y-121880000D03*
X52400000Y-124420000D03*
X54940000Y-124420000D03*
X52400000Y-126960000D03*
X54940000Y-129500000D03*
X54940000Y-126960000D03*
X57480000Y-129500000D03*
X57480000Y-126960000D03*
X60020000Y-129500000D03*
X60020000Y-126960000D03*
X62560000Y-129500000D03*
X62560000Y-126960000D03*
D22*
X46930000Y-58624900D03*
D14*
X46930000Y-61124900D03*
X84500000Y-127250000D03*
X84500000Y-124750000D03*
X78020000Y-77500000D03*
X75520000Y-77500000D03*
D15*
X38500000Y-60300000D03*
D16*
X41040000Y-60300000D03*
X38500000Y-62840000D03*
X41040000Y-62840000D03*
X38500000Y-65380000D03*
X41040000Y-65380000D03*
X38500000Y-67920000D03*
X41040000Y-67920000D03*
X38500000Y-70460000D03*
X41040000Y-70460000D03*
X38500000Y-73000000D03*
X41040000Y-73000000D03*
X38500000Y-75540000D03*
X41040000Y-75540000D03*
X38500000Y-78080000D03*
X41040000Y-78080000D03*
X38500000Y-80620000D03*
X41040000Y-80620000D03*
X38500000Y-83160000D03*
X41040000Y-83160000D03*
X38500000Y-85700000D03*
X41040000Y-85700000D03*
X38500000Y-88240000D03*
X41040000Y-88240000D03*
X38500000Y-90780000D03*
X41040000Y-90780000D03*
X38500000Y-93320000D03*
X41040000Y-93320000D03*
X38500000Y-95860000D03*
X41040000Y-95860000D03*
X38500000Y-98400000D03*
X41040000Y-98400000D03*
X38500000Y-100940000D03*
X41040000Y-100940000D03*
X38500000Y-103480000D03*
X41040000Y-103480000D03*
X38500000Y-106020000D03*
X41040000Y-106020000D03*
X38500000Y-108560000D03*
X41040000Y-108560000D03*
X38500000Y-111100000D03*
X41040000Y-111100000D03*
X38500000Y-113640000D03*
X41040000Y-113640000D03*
X38500000Y-116180000D03*
X41040000Y-116180000D03*
X38500000Y-118720000D03*
X41040000Y-118720000D03*
X38500000Y-121260000D03*
X41040000Y-121260000D03*
X38500000Y-123800000D03*
X41040000Y-123800000D03*
X38500000Y-126340000D03*
X41040000Y-126340000D03*
X38500000Y-128880000D03*
X41040000Y-128880000D03*
X38500000Y-131420000D03*
X41040000Y-131420000D03*
X38500000Y-133960000D03*
X41040000Y-133960000D03*
X38500000Y-136500000D03*
X41040000Y-136500000D03*
X38500000Y-139040000D03*
X41040000Y-139040000D03*
D14*
X84000000Y-70250000D03*
X84000000Y-67750000D03*
D23*
X70210000Y-83190000D03*
D24*
X70210000Y-90810000D03*
X77830000Y-90810000D03*
X77830000Y-83190000D03*
D25*
X45261700Y-81483100D03*
X55179800Y-71454400D03*
X57362200Y-71234300D03*
X61514400Y-115691300D03*
X43741200Y-78749400D03*
X53670000Y-117996400D03*
X50714500Y-110208100D03*
X44664400Y-111153800D03*
X49947600Y-130580000D03*
%LPD*%
M02*
