%TF.GenerationSoftware,KiCad,Pcbnew,8.0.0*%
%TF.CreationDate,2024-03-03T08:39:44-05:00*%
%TF.ProjectId,Rosco-CoPro,526f7363-6f2d-4436-9f50-726f2e6b6963,rev?*%
%TF.SameCoordinates,Original*%
%TF.FileFunction,Copper,L4,Bot*%
%TF.FilePolarity,Positive*%
%FSLAX46Y46*%
G04 Gerber Fmt 4.6, Leading zero omitted, Abs format (unit mm)*
G04 Created by KiCad (PCBNEW 8.0.0) date 2024-03-03 08:39:44*
%MOMM*%
%LPD*%
G01*
G04 APERTURE LIST*
%TA.AperFunction,ComponentPad*%
%ADD10C,1.600000*%
%TD*%
%TA.AperFunction,ComponentPad*%
%ADD11R,1.700000X1.700000*%
%TD*%
%TA.AperFunction,ComponentPad*%
%ADD12O,1.700000X1.700000*%
%TD*%
%TA.AperFunction,ComponentPad*%
%ADD13O,1.600000X1.600000*%
%TD*%
%TA.AperFunction,ComponentPad*%
%ADD14R,1.600000X2.400000*%
%TD*%
%TA.AperFunction,ComponentPad*%
%ADD15O,1.600000X2.400000*%
%TD*%
%TA.AperFunction,ComponentPad*%
%ADD16R,1.422400X1.422400*%
%TD*%
%TA.AperFunction,ComponentPad*%
%ADD17C,1.422400*%
%TD*%
%TA.AperFunction,ComponentPad*%
%ADD18R,1.600000X1.600000*%
%TD*%
%TA.AperFunction,ComponentPad*%
%ADD19R,2.500000X2.500000*%
%TD*%
%TA.AperFunction,ComponentPad*%
%ADD20C,2.500000*%
%TD*%
%TA.AperFunction,ViaPad*%
%ADD21C,0.700000*%
%TD*%
%TA.AperFunction,Conductor*%
%ADD22C,0.250000*%
%TD*%
G04 APERTURE END LIST*
D10*
%TO.P,C3,1*%
%TO.N,+5V*%
X54750000Y-97000000D03*
%TO.P,C3,2*%
%TO.N,GND*%
X57250000Y-97000000D03*
%TD*%
D11*
%TO.P,J1,1,Pin_1*%
%TO.N,CPUCLK*%
X55020000Y-85783300D03*
D12*
%TO.P,J1,2,Pin_2*%
%TO.N,Net-(IC1-CLK)*%
X55020000Y-88323300D03*
%TO.P,J1,3,Pin_3*%
%TO.N,Net-(J1-Pin_3)*%
X55020000Y-90863300D03*
%TD*%
D10*
%TO.P,R1,1*%
%TO.N,Net-(X1-OUT)*%
X63000000Y-83420000D03*
D13*
%TO.P,R1,2*%
%TO.N,Net-(J1-Pin_3)*%
X63000000Y-93580000D03*
%TD*%
D10*
%TO.P,C8,1*%
%TO.N,+5V*%
X84500000Y-119250000D03*
%TO.P,C8,2*%
%TO.N,GND*%
X84500000Y-121750000D03*
%TD*%
%TO.P,C5,1*%
%TO.N,+5V*%
X55250000Y-136000000D03*
%TO.P,C5,2*%
%TO.N,GND*%
X57750000Y-136000000D03*
%TD*%
%TO.P,C2,1*%
%TO.N,+5V*%
X75250000Y-97500000D03*
%TO.P,C2,2*%
%TO.N,GND*%
X77750000Y-97500000D03*
%TD*%
%TO.P,C6,1*%
%TO.N,+5V*%
X46000000Y-116750000D03*
%TO.P,C6,2*%
%TO.N,GND*%
X46000000Y-114250000D03*
%TD*%
D14*
%TO.P,IC2,1,CLK/IN*%
%TO.N,UDS*%
X79480000Y-65220000D03*
D15*
%TO.P,IC2,2,IN_1*%
%TO.N,LDS*%
X76940000Y-65220000D03*
%TO.P,IC2,3,IN_2*%
%TO.N,CPUFC0*%
X74400000Y-65220000D03*
%TO.P,IC2,4,IN/PD*%
%TO.N,CPUFC1*%
X71860000Y-65220000D03*
%TO.P,IC2,5,IN_3*%
%TO.N,CPUFC2*%
X69320000Y-65220000D03*
%TO.P,IC2,6,IN_4*%
%TO.N,A13*%
X66780000Y-65220000D03*
%TO.P,IC2,7,IN_5*%
%TO.N,A14*%
X64240000Y-65220000D03*
%TO.P,IC2,8,IN_6*%
%TO.N,A15*%
X61700000Y-65220000D03*
%TO.P,IC2,9,IN_7*%
%TO.N,A16*%
X59160000Y-65220000D03*
%TO.P,IC2,10,IN_8*%
%TO.N,A17*%
X56620000Y-65220000D03*
%TO.P,IC2,11,IN_9*%
%TO.N,A18*%
X54080000Y-65220000D03*
%TO.P,IC2,12,GND*%
%TO.N,GND*%
X51540000Y-65220000D03*
%TO.P,IC2,13,IN_10*%
%TO.N,A19*%
X51540000Y-72840000D03*
%TO.P,IC2,14,I/O_1*%
%TO.N,A5*%
X54080000Y-72840000D03*
%TO.P,IC2,15,I/O_2*%
%TO.N,A6*%
X56620000Y-72840000D03*
%TO.P,IC2,16,I/O_3*%
%TO.N,A7*%
X59160000Y-72840000D03*
%TO.P,IC2,17,I/O_4*%
%TO.N,A8*%
X61700000Y-72840000D03*
%TO.P,IC2,18,I/O_5*%
%TO.N,A9*%
X64240000Y-72840000D03*
%TO.P,IC2,19,I/O_6*%
%TO.N,A10*%
X66780000Y-72840000D03*
%TO.P,IC2,20,I/O_7*%
%TO.N,A11*%
X69320000Y-72840000D03*
%TO.P,IC2,21,I/O_8*%
%TO.N,A12*%
X71860000Y-72840000D03*
%TO.P,IC2,22,I/O_9*%
%TO.N,CS*%
X74400000Y-72840000D03*
%TO.P,IC2,23,I/O_10*%
%TO.N,DS*%
X76940000Y-72840000D03*
%TO.P,IC2,24,VCC*%
%TO.N,+5V*%
X79480000Y-72840000D03*
%TD*%
D10*
%TO.P,C7,1*%
%TO.N,+5V*%
X84500000Y-116250000D03*
%TO.P,C7,2*%
%TO.N,GND*%
X84500000Y-113750000D03*
%TD*%
D16*
%TO.P,IC1,1,D2*%
%TO.N,D2*%
X65100000Y-129500000D03*
D17*
%TO.P,IC1,2,D1*%
%TO.N,D1*%
X65100000Y-126960000D03*
%TO.P,IC1,3,D0*%
%TO.N,D0*%
X67640000Y-129500000D03*
%TO.P,IC1,4,SENSE*%
%TO.N,GND*%
X67640000Y-126960000D03*
%TO.P,IC1,5,GND*%
X70180000Y-129500000D03*
%TO.P,IC1,6,GND*%
X70180000Y-126960000D03*
%TO.P,IC1,7,GND*%
X72720000Y-129500000D03*
%TO.P,IC1,8,GND*%
X72720000Y-126960000D03*
%TO.P,IC1,9,GND*%
X75260000Y-129500000D03*
%TO.P,IC1,10,VCC*%
%TO.N,+5V*%
X77800000Y-126960000D03*
%TO.P,IC1,11,CLK*%
%TO.N,Net-(IC1-CLK)*%
X75260000Y-126960000D03*
%TO.P,IC1,12,GND*%
%TO.N,GND*%
X77800000Y-124420000D03*
%TO.P,IC1,13,RESET*%
%TO.N,RESET*%
X75260000Y-124420000D03*
%TO.P,IC1,14,GND*%
%TO.N,GND*%
X77800000Y-121880000D03*
%TO.P,IC1,15,NC*%
%TO.N,unconnected-(IC1-NC-Pad15)*%
X75260000Y-121880000D03*
%TO.P,IC1,16,VCC*%
%TO.N,+5V*%
X77800000Y-119340000D03*
%TO.P,IC1,17,VCC*%
X75260000Y-119340000D03*
%TO.P,IC1,18,SIZE*%
X77800000Y-116800000D03*
%TO.P,IC1,19,GND*%
%TO.N,GND*%
X75260000Y-116800000D03*
%TO.P,IC1,20,DS*%
%TO.N,DS*%
X77800000Y-114260000D03*
%TO.P,IC1,21,AS*%
%TO.N,AS*%
X75260000Y-114260000D03*
%TO.P,IC1,22,A4*%
%TO.N,A4*%
X77800000Y-111720000D03*
%TO.P,IC1,23,A3*%
%TO.N,A3*%
X75260000Y-111720000D03*
%TO.P,IC1,24,A2*%
%TO.N,A2*%
X77800000Y-109180000D03*
%TO.P,IC1,25,A1*%
%TO.N,A1*%
X75260000Y-109180000D03*
%TO.P,IC1,26,A0*%
%TO.N,GND*%
X77800000Y-106640000D03*
%TO.P,IC1,27,VCC*%
%TO.N,+5V*%
X75260000Y-104100000D03*
%TO.P,IC1,28,RW*%
%TO.N,RW*%
X75260000Y-106640000D03*
%TO.P,IC1,29,CS*%
%TO.N,CS*%
X72720000Y-104100000D03*
%TO.P,IC1,30,GND*%
%TO.N,GND*%
X72720000Y-106640000D03*
%TO.P,IC1,31,DSACK0*%
%TO.N,unconnected-(IC1-DSACK0-Pad31)*%
X70180000Y-104100000D03*
%TO.P,IC1,32,DSACK1*%
%TO.N,DTACK*%
X70180000Y-106640000D03*
%TO.P,IC1,33,D31*%
%TO.N,D15*%
X67640000Y-104100000D03*
%TO.P,IC1,34,D30*%
%TO.N,D14*%
X67640000Y-106640000D03*
%TO.P,IC1,35,D29*%
%TO.N,D13*%
X65100000Y-104100000D03*
%TO.P,IC1,36,D28*%
%TO.N,D12*%
X65100000Y-106640000D03*
%TO.P,IC1,37,D27*%
%TO.N,D11*%
X62560000Y-104100000D03*
%TO.P,IC1,38,D26*%
%TO.N,D10*%
X62560000Y-106640000D03*
%TO.P,IC1,39,D25*%
%TO.N,D9*%
X60020000Y-104100000D03*
%TO.P,IC1,40,D24*%
%TO.N,D8*%
X60020000Y-106640000D03*
%TO.P,IC1,41,GND*%
%TO.N,GND*%
X57480000Y-104100000D03*
%TO.P,IC1,42,D23*%
%TO.N,D7*%
X57480000Y-106640000D03*
%TO.P,IC1,43,VCC*%
%TO.N,+5V*%
X54940000Y-104100000D03*
%TO.P,IC1,44,D22*%
%TO.N,D6*%
X52400000Y-106640000D03*
%TO.P,IC1,45,D21*%
%TO.N,D5*%
X54940000Y-106640000D03*
%TO.P,IC1,46,D20*%
%TO.N,D4*%
X52400000Y-109180000D03*
%TO.P,IC1,47,D19*%
%TO.N,D3*%
X54940000Y-109180000D03*
%TO.P,IC1,48,D18*%
%TO.N,D2*%
X52400000Y-111720000D03*
%TO.P,IC1,49,D17*%
%TO.N,D1*%
X54940000Y-111720000D03*
%TO.P,IC1,50,D16*%
%TO.N,D0*%
X52400000Y-114260000D03*
%TO.P,IC1,51,GND*%
%TO.N,GND*%
X54940000Y-114260000D03*
%TO.P,IC1,52,VCC*%
%TO.N,+5V*%
X52400000Y-116800000D03*
%TO.P,IC1,53,VCC*%
X54940000Y-116800000D03*
%TO.P,IC1,54,D15*%
%TO.N,D15*%
X52400000Y-119340000D03*
%TO.P,IC1,55,D14*%
%TO.N,D14*%
X54940000Y-119340000D03*
%TO.P,IC1,56,D13*%
%TO.N,D13*%
X52400000Y-121880000D03*
%TO.P,IC1,57,D12*%
%TO.N,D12*%
X54940000Y-121880000D03*
%TO.P,IC1,58,D11*%
%TO.N,D11*%
X52400000Y-124420000D03*
%TO.P,IC1,59,D10*%
%TO.N,D10*%
X54940000Y-124420000D03*
%TO.P,IC1,60,D9*%
%TO.N,D9*%
X52400000Y-126960000D03*
%TO.P,IC1,61,VCC*%
%TO.N,+5V*%
X54940000Y-129500000D03*
%TO.P,IC1,62,D8*%
%TO.N,D8*%
X54940000Y-126960000D03*
%TO.P,IC1,63,GND*%
%TO.N,GND*%
X57480000Y-129500000D03*
%TO.P,IC1,64,D7*%
%TO.N,D7*%
X57480000Y-126960000D03*
%TO.P,IC1,65,D6*%
%TO.N,D6*%
X60020000Y-129500000D03*
%TO.P,IC1,66,D5*%
%TO.N,D5*%
X60020000Y-126960000D03*
%TO.P,IC1,67,D4*%
%TO.N,D4*%
X62560000Y-129500000D03*
%TO.P,IC1,68,D3*%
%TO.N,D3*%
X62560000Y-126960000D03*
%TD*%
D18*
%TO.P,C9,1*%
%TO.N,+5V*%
X46930000Y-58624900D03*
D10*
%TO.P,C9,2*%
%TO.N,GND*%
X46930000Y-61124900D03*
%TD*%
%TO.P,C4,1*%
%TO.N,+5V*%
X84500000Y-127250000D03*
%TO.P,C4,2*%
%TO.N,GND*%
X84500000Y-124750000D03*
%TD*%
%TO.P,C1,1*%
%TO.N,+5V*%
X78020000Y-77500000D03*
%TO.P,C1,2*%
%TO.N,GND*%
X75520000Y-77500000D03*
%TD*%
D11*
%TO.P,BUS1,1,Pin_1*%
%TO.N,A1*%
X38500000Y-60300000D03*
D12*
%TO.P,BUS1,2,Pin_2*%
%TO.N,+5V*%
X41040000Y-60300000D03*
%TO.P,BUS1,3,Pin_3*%
%TO.N,A2*%
X38500000Y-62840000D03*
%TO.P,BUS1,4,Pin_4*%
%TO.N,CPUCLK*%
X41040000Y-62840000D03*
%TO.P,BUS1,5,Pin_5*%
%TO.N,A3*%
X38500000Y-65380000D03*
%TO.P,BUS1,6,Pin_6*%
%TO.N,GND*%
X41040000Y-65380000D03*
%TO.P,BUS1,7,Pin_7*%
%TO.N,A4*%
X38500000Y-67920000D03*
%TO.P,BUS1,8,Pin_8*%
%TO.N,VPA*%
X41040000Y-67920000D03*
%TO.P,BUS1,9,Pin_9*%
%TO.N,A5*%
X38500000Y-70460000D03*
%TO.P,BUS1,10,Pin_10*%
%TO.N,E*%
X41040000Y-70460000D03*
%TO.P,BUS1,11,Pin_11*%
%TO.N,A6*%
X38500000Y-73000000D03*
%TO.P,BUS1,12,Pin_12*%
%TO.N,VMA*%
X41040000Y-73000000D03*
%TO.P,BUS1,13,Pin_13*%
%TO.N,A7*%
X38500000Y-75540000D03*
%TO.P,BUS1,14,Pin_14*%
%TO.N,MFPIEO*%
X41040000Y-75540000D03*
%TO.P,BUS1,15,Pin_15*%
%TO.N,A8*%
X38500000Y-78080000D03*
%TO.P,BUS1,16,Pin_16*%
%TO.N,IOSEL*%
X41040000Y-78080000D03*
%TO.P,BUS1,17,Pin_17*%
%TO.N,A9*%
X38500000Y-80620000D03*
%TO.P,BUS1,18,Pin_18*%
%TO.N,EXPSEL*%
X41040000Y-80620000D03*
%TO.P,BUS1,19,Pin_19*%
%TO.N,A10*%
X38500000Y-83160000D03*
%TO.P,BUS1,20,Pin_20*%
%TO.N,CPUFC0*%
X41040000Y-83160000D03*
%TO.P,BUS1,21,Pin_21*%
%TO.N,A11*%
X38500000Y-85700000D03*
%TO.P,BUS1,22,Pin_22*%
%TO.N,CPUFC1*%
X41040000Y-85700000D03*
%TO.P,BUS1,23,Pin_23*%
%TO.N,A12*%
X38500000Y-88240000D03*
%TO.P,BUS1,24,Pin_24*%
%TO.N,CPUFC2*%
X41040000Y-88240000D03*
%TO.P,BUS1,25,Pin_25*%
%TO.N,A13*%
X38500000Y-90780000D03*
%TO.P,BUS1,26,Pin_26*%
%TO.N,IPL0*%
X41040000Y-90780000D03*
%TO.P,BUS1,27,Pin_27*%
%TO.N,A14*%
X38500000Y-93320000D03*
%TO.P,BUS1,28,Pin_28*%
%TO.N,IPL1*%
X41040000Y-93320000D03*
%TO.P,BUS1,29,Pin_29*%
%TO.N,A15*%
X38500000Y-95860000D03*
%TO.P,BUS1,30,Pin_30*%
%TO.N,IPL2*%
X41040000Y-95860000D03*
%TO.P,BUS1,31,Pin_31*%
%TO.N,A16*%
X38500000Y-98400000D03*
%TO.P,BUS1,32,Pin_32*%
%TO.N,LDS*%
X41040000Y-98400000D03*
%TO.P,BUS1,33,Pin_33*%
%TO.N,A17*%
X38500000Y-100940000D03*
%TO.P,BUS1,34,Pin_34*%
%TO.N,UDS*%
X41040000Y-100940000D03*
%TO.P,BUS1,35,Pin_35*%
%TO.N,A18*%
X38500000Y-103480000D03*
%TO.P,BUS1,36,Pin_36*%
%TO.N,RESET*%
X41040000Y-103480000D03*
%TO.P,BUS1,37,Pin_37*%
%TO.N,A19*%
X38500000Y-106020000D03*
%TO.P,BUS1,38,Pin_38*%
%TO.N,D15*%
X41040000Y-106020000D03*
%TO.P,BUS1,39,Pin_39*%
%TO.N,A20*%
X38500000Y-108560000D03*
%TO.P,BUS1,40,Pin_40*%
%TO.N,D14*%
X41040000Y-108560000D03*
%TO.P,BUS1,41,Pin_41*%
%TO.N,A21*%
X38500000Y-111100000D03*
%TO.P,BUS1,42,Pin_42*%
%TO.N,D13*%
X41040000Y-111100000D03*
%TO.P,BUS1,43,Pin_43*%
%TO.N,A22*%
X38500000Y-113640000D03*
%TO.P,BUS1,44,Pin_44*%
%TO.N,D12*%
X41040000Y-113640000D03*
%TO.P,BUS1,45,Pin_45*%
%TO.N,A23*%
X38500000Y-116180000D03*
%TO.P,BUS1,46,Pin_46*%
%TO.N,D11*%
X41040000Y-116180000D03*
%TO.P,BUS1,47,Pin_47*%
%TO.N,AS*%
X38500000Y-118720000D03*
%TO.P,BUS1,48,Pin_48*%
%TO.N,D10*%
X41040000Y-118720000D03*
%TO.P,BUS1,49,Pin_49*%
%TO.N,BERR*%
X38500000Y-121260000D03*
%TO.P,BUS1,50,Pin_50*%
%TO.N,D9*%
X41040000Y-121260000D03*
%TO.P,BUS1,51,Pin_51*%
%TO.N,BG*%
X38500000Y-123800000D03*
%TO.P,BUS1,52,Pin_52*%
%TO.N,D8*%
X41040000Y-123800000D03*
%TO.P,BUS1,53,Pin_53*%
%TO.N,BGACK*%
X38500000Y-126340000D03*
%TO.P,BUS1,54,Pin_54*%
%TO.N,D7*%
X41040000Y-126340000D03*
%TO.P,BUS1,55,Pin_55*%
%TO.N,BR*%
X38500000Y-128880000D03*
%TO.P,BUS1,56,Pin_56*%
%TO.N,D6*%
X41040000Y-128880000D03*
%TO.P,BUS1,57,Pin_57*%
%TO.N,DTACK*%
X38500000Y-131420000D03*
%TO.P,BUS1,58,Pin_58*%
%TO.N,D5*%
X41040000Y-131420000D03*
%TO.P,BUS1,59,Pin_59*%
%TO.N,RW*%
X38500000Y-133960000D03*
%TO.P,BUS1,60,Pin_60*%
%TO.N,D4*%
X41040000Y-133960000D03*
%TO.P,BUS1,61,Pin_61*%
%TO.N,D0*%
X38500000Y-136500000D03*
%TO.P,BUS1,62,Pin_62*%
%TO.N,D3*%
X41040000Y-136500000D03*
%TO.P,BUS1,63,Pin_63*%
%TO.N,D1*%
X38500000Y-139040000D03*
%TO.P,BUS1,64,Pin_64*%
%TO.N,D2*%
X41040000Y-139040000D03*
%TD*%
D10*
%TO.P,C10,1*%
%TO.N,+5V*%
X84000000Y-70250000D03*
%TO.P,C10,2*%
%TO.N,GND*%
X84000000Y-67750000D03*
%TD*%
D19*
%TO.P,X1,1,EN*%
%TO.N,unconnected-(X1-EN-Pad1)*%
X70210000Y-83190000D03*
D20*
%TO.P,X1,4,GND*%
%TO.N,GND*%
X70210000Y-90810000D03*
%TO.P,X1,5,OUT*%
%TO.N,Net-(X1-OUT)*%
X77830000Y-90810000D03*
%TO.P,X1,8,Vcc*%
%TO.N,+5V*%
X77830000Y-83190000D03*
%TD*%
D21*
%TO.N,A13*%
X45261700Y-81483100D03*
%TO.N,A4*%
X55179800Y-71454400D03*
%TO.N,A3*%
X57362200Y-71234300D03*
%TO.N,D7*%
X61514400Y-115691300D03*
%TO.N,A14*%
X43741200Y-78749400D03*
%TO.N,D12*%
X53670000Y-117996400D03*
%TO.N,D13*%
X50714500Y-110208100D03*
%TO.N,D15*%
X44664400Y-111153800D03*
%TO.N,D3*%
X49947600Y-130580000D03*
%TD*%
D22*
%TO.N,A13*%
X48266800Y-78478000D02*
X60608900Y-78478000D01*
X45261700Y-81483100D02*
X48266800Y-78478000D01*
X65534800Y-73552100D02*
X65534800Y-67991900D01*
X66780000Y-65220000D02*
X66780000Y-66746700D01*
X60608900Y-78478000D02*
X65534800Y-73552100D01*
X65534800Y-67991900D02*
X66780000Y-66746700D01*
%TO.N,A8*%
X61700000Y-72840000D02*
X57636700Y-76903300D01*
X57636700Y-76903300D02*
X40485600Y-76903300D01*
X39676700Y-77712200D02*
X39676700Y-78080000D01*
X40485600Y-76903300D02*
X39676700Y-77712200D01*
X38500000Y-78080000D02*
X39676700Y-78080000D01*
%TO.N,A7*%
X59160000Y-72840000D02*
X59160000Y-74366700D01*
X39676700Y-75540000D02*
X39676700Y-75172200D01*
X40485600Y-74363300D02*
X42011600Y-74363300D01*
X58682700Y-74844000D02*
X59160000Y-74366700D01*
X39676700Y-75172200D02*
X40485600Y-74363300D01*
X42011600Y-74363300D02*
X42492300Y-74844000D01*
X42492300Y-74844000D02*
X58682700Y-74844000D01*
X38500000Y-75540000D02*
X39676700Y-75540000D01*
%TO.N,A6*%
X56620000Y-72840000D02*
X56620000Y-74366700D01*
X39676700Y-73000000D02*
X39676700Y-72632300D01*
X38500000Y-73000000D02*
X39676700Y-73000000D01*
X46674600Y-71819900D02*
X49221400Y-74366700D01*
X49221400Y-74366700D02*
X56620000Y-74366700D01*
X39676700Y-72632300D02*
X40489100Y-71819900D01*
X40489100Y-71819900D02*
X46674600Y-71819900D01*
%TO.N,A5*%
X54077900Y-71313300D02*
X54080000Y-71313300D01*
X54080000Y-72840000D02*
X54080000Y-71313300D01*
X38500000Y-70460000D02*
X39676700Y-70460000D01*
X39676700Y-70460000D02*
X39676700Y-70092300D01*
X39676700Y-70092300D02*
X40491500Y-69277500D01*
X52042100Y-69277500D02*
X54077900Y-71313300D01*
X40491500Y-69277500D02*
X52042100Y-69277500D01*
%TO.N,A4*%
X40516200Y-66712800D02*
X50116200Y-66712800D01*
X53292600Y-69567200D02*
X55179800Y-71454400D01*
X39676700Y-67920000D02*
X39676700Y-67552300D01*
X52970600Y-69567200D02*
X53292600Y-69567200D01*
X39676700Y-67552300D02*
X40516200Y-66712800D01*
X38500000Y-67920000D02*
X39676700Y-67920000D01*
X50116200Y-66712800D02*
X52970600Y-69567200D01*
%TO.N,A3*%
X48383900Y-64189400D02*
X51966300Y-67771800D01*
X40499600Y-64189400D02*
X48383900Y-64189400D01*
X38500000Y-65380000D02*
X39676700Y-65380000D01*
X53899700Y-67771800D02*
X57362200Y-71234300D01*
X39676700Y-65012300D02*
X40499600Y-64189400D01*
X39676700Y-65380000D02*
X39676700Y-65012300D01*
X51966300Y-67771800D02*
X53899700Y-67771800D01*
%TO.N,A1*%
X80684800Y-100197100D02*
X76530000Y-104351900D01*
X39676700Y-60667800D02*
X40485600Y-61476700D01*
X46350300Y-62441600D02*
X79175400Y-62441600D01*
X45385400Y-61476700D02*
X46350300Y-62441600D01*
X76530000Y-104351900D02*
X76530000Y-107910000D01*
X39676700Y-60300000D02*
X39676700Y-60667800D01*
X38500000Y-60300000D02*
X39676700Y-60300000D01*
X79175400Y-62441600D02*
X80684800Y-63951000D01*
X76530000Y-107910000D02*
X75260000Y-109180000D01*
X80684800Y-63951000D02*
X80684800Y-100197100D01*
X40485600Y-61476700D02*
X45385400Y-61476700D01*
%TO.N,D1*%
X42121900Y-137863300D02*
X47679300Y-132305900D01*
X38500000Y-139040000D02*
X39676700Y-139040000D01*
X39676700Y-139040000D02*
X39676700Y-138672200D01*
X61222000Y-132305900D02*
X63610400Y-129917500D01*
X63610400Y-128449600D02*
X65100000Y-126960000D01*
X40485600Y-137863300D02*
X42121900Y-137863300D01*
X39676700Y-138672200D02*
X40485600Y-137863300D01*
X63610400Y-129917500D02*
X63610400Y-128449600D01*
X47679300Y-132305900D02*
X61222000Y-132305900D01*
%TO.N,D5*%
X58750000Y-128230000D02*
X54308800Y-128230000D01*
X44100200Y-129536500D02*
X42216700Y-131420000D01*
X60020000Y-126960000D02*
X58750000Y-128230000D01*
X53002300Y-129536500D02*
X44100200Y-129536500D01*
X54308800Y-128230000D02*
X53002300Y-129536500D01*
X41040000Y-131420000D02*
X42216700Y-131420000D01*
%TO.N,D6*%
X39824700Y-131869500D02*
X40568000Y-132612800D01*
X40672300Y-130056700D02*
X39824700Y-130904300D01*
X43245700Y-132612800D02*
X44601800Y-131256700D01*
X41040000Y-128880000D02*
X41040000Y-130056700D01*
X58263300Y-131256700D02*
X60020000Y-129500000D01*
X39824700Y-130904300D02*
X39824700Y-131869500D01*
X40568000Y-132612800D02*
X43245700Y-132612800D01*
X44601800Y-131256700D02*
X58263300Y-131256700D01*
X41040000Y-130056700D02*
X40672300Y-130056700D01*
%TO.N,D7*%
X44514000Y-127998400D02*
X42855600Y-126340000D01*
X54505400Y-125883300D02*
X53509900Y-126878800D01*
X57480000Y-119725700D02*
X61514400Y-115691300D01*
X57480000Y-126960000D02*
X57480000Y-119725700D01*
X53509900Y-127347600D02*
X52859100Y-127998400D01*
X42855600Y-126340000D02*
X42216700Y-126340000D01*
X56403300Y-125883300D02*
X54505400Y-125883300D01*
X53509900Y-126878800D02*
X53509900Y-127347600D01*
X41040000Y-126340000D02*
X42216700Y-126340000D01*
X52859100Y-127998400D02*
X44514000Y-127998400D01*
X57480000Y-126960000D02*
X56403300Y-125883300D01*
%TO.N,A11*%
X39676700Y-85700000D02*
X39676700Y-85332200D01*
X38500000Y-85700000D02*
X39676700Y-85700000D01*
X56058900Y-79384300D02*
X62775700Y-79384300D01*
X40485600Y-84523300D02*
X50919900Y-84523300D01*
X62775700Y-79384300D02*
X69320000Y-72840000D01*
X50919900Y-84523300D02*
X56058900Y-79384300D01*
X39676700Y-85332200D02*
X40485600Y-84523300D01*
%TO.N,A12*%
X38500000Y-88240000D02*
X39676700Y-88240000D01*
X39676700Y-87872200D02*
X40485600Y-87063300D01*
X40485600Y-87063300D02*
X50114700Y-87063300D01*
X39676700Y-88240000D02*
X39676700Y-87872200D01*
X56666000Y-80512000D02*
X64307100Y-80512000D01*
X50114700Y-87063300D02*
X56666000Y-80512000D01*
X64307100Y-80512000D02*
X71860000Y-72959100D01*
X71860000Y-72959100D02*
X71860000Y-72840000D01*
%TO.N,A10*%
X66780000Y-72840000D02*
X66780000Y-74366700D01*
X53185700Y-78932600D02*
X62214100Y-78932600D01*
X40527900Y-81941100D02*
X44633400Y-81941100D01*
X44914700Y-82222400D02*
X49895900Y-82222400D01*
X39676700Y-83160000D02*
X39676700Y-82792300D01*
X38500000Y-83160000D02*
X39676700Y-83160000D01*
X49895900Y-82222400D02*
X53185700Y-78932600D01*
X44633400Y-81941100D02*
X44914700Y-82222400D01*
X39676700Y-82792300D02*
X40527900Y-81941100D01*
X62214100Y-78932600D02*
X66780000Y-74366700D01*
%TO.N,A9*%
X45559500Y-79443300D02*
X40485600Y-79443300D01*
X47039800Y-77963000D02*
X45559500Y-79443300D01*
X59258800Y-77963000D02*
X47039800Y-77963000D01*
X38500000Y-80620000D02*
X39676700Y-80620000D01*
X64240000Y-72981800D02*
X59258800Y-77963000D01*
X39676700Y-80252200D02*
X39676700Y-80620000D01*
X64240000Y-72840000D02*
X64240000Y-72981800D01*
X40485600Y-79443300D02*
X39676700Y-80252200D01*
%TO.N,A14*%
X44979400Y-77511200D02*
X43741200Y-78749400D01*
X63081400Y-67905300D02*
X63081400Y-73501500D01*
X59071700Y-77511200D02*
X44979400Y-77511200D01*
X64240000Y-65220000D02*
X64240000Y-66746700D01*
X63081400Y-73501500D02*
X59071700Y-77511200D01*
X64240000Y-66746700D02*
X63081400Y-67905300D01*
%TO.N,D8*%
X41040000Y-123800000D02*
X41040000Y-124976700D01*
X40672300Y-124976700D02*
X39824700Y-125824300D01*
X53238100Y-128501800D02*
X54779900Y-126960000D01*
X39824700Y-125824300D02*
X39824700Y-126789500D01*
X40645200Y-127610000D02*
X43077100Y-127610000D01*
X43077100Y-127610000D02*
X43968900Y-128501800D01*
X43968900Y-128501800D02*
X53238100Y-128501800D01*
X39824700Y-126789500D02*
X40645200Y-127610000D01*
X41040000Y-124976700D02*
X40672300Y-124976700D01*
X54779900Y-126960000D02*
X54940000Y-126960000D01*
%TO.N,D9*%
X41040000Y-121260000D02*
X42216700Y-121260000D01*
X42216700Y-121260000D02*
X47916700Y-126960000D01*
X47916700Y-126960000D02*
X52400000Y-126960000D01*
%TO.N,D10*%
X49578300Y-123150000D02*
X53670000Y-123150000D01*
X53670000Y-123150000D02*
X54940000Y-124420000D01*
X45148300Y-118720000D02*
X49578300Y-123150000D01*
X41040000Y-118720000D02*
X45148300Y-118720000D01*
%TO.N,D11*%
X45748200Y-119990000D02*
X50178200Y-124420000D01*
X38085300Y-119990000D02*
X45748200Y-119990000D01*
X50178200Y-124420000D02*
X52400000Y-124420000D01*
X38189700Y-117356700D02*
X37291600Y-118254800D01*
X39863300Y-116180000D02*
X39863300Y-116547800D01*
X37291600Y-119196300D02*
X38085300Y-119990000D01*
X37291600Y-118254800D02*
X37291600Y-119196300D01*
X41040000Y-116180000D02*
X39863300Y-116180000D01*
X39054400Y-117356700D02*
X38189700Y-117356700D01*
X39863300Y-116547800D02*
X39054400Y-117356700D01*
%TO.N,D12*%
X44335500Y-110477100D02*
X42216700Y-112595900D01*
X53670000Y-110679700D02*
X53670000Y-117996400D01*
X41040000Y-113640000D02*
X42216700Y-113640000D01*
X50994800Y-110884800D02*
X45352400Y-110884800D01*
X61060300Y-110679700D02*
X53670000Y-110679700D01*
X44944700Y-110477100D02*
X44335500Y-110477100D01*
X65100000Y-106640000D02*
X61060300Y-110679700D01*
X51199900Y-110679700D02*
X50994800Y-110884800D01*
X53670000Y-110679700D02*
X51199900Y-110679700D01*
X45352400Y-110884800D02*
X44944700Y-110477100D01*
X42216700Y-112595900D02*
X42216700Y-113640000D01*
%TO.N,D13*%
X50404400Y-109898000D02*
X50404400Y-107138700D01*
X50404400Y-109898000D02*
X50714500Y-110208100D01*
X50404400Y-107138700D02*
X52173100Y-105370000D01*
X42216700Y-111100000D02*
X43418700Y-109898000D01*
X43418700Y-109898000D02*
X50404400Y-109898000D01*
X52173100Y-105370000D02*
X63830000Y-105370000D01*
X41040000Y-111100000D02*
X42216700Y-111100000D01*
X63830000Y-105370000D02*
X65100000Y-104100000D01*
%TO.N,D14*%
X66370000Y-105370000D02*
X67640000Y-106640000D01*
X66370000Y-103902100D02*
X66370000Y-105370000D01*
X41040000Y-108560000D02*
X42216700Y-108560000D01*
X42216700Y-108560000D02*
X47735500Y-103041200D01*
X67640000Y-106640000D02*
X54940000Y-119340000D01*
X47735500Y-103041200D02*
X65509100Y-103041200D01*
X65509100Y-103041200D02*
X66370000Y-103902100D01*
%TO.N,D15*%
X52400000Y-118889400D02*
X52400000Y-119340000D01*
X45680600Y-102556100D02*
X66096100Y-102556100D01*
X41040000Y-106020000D02*
X42216700Y-106020000D01*
X44664400Y-111153800D02*
X52400000Y-118889400D01*
X42216700Y-106020000D02*
X45680600Y-102556100D01*
X66096100Y-102556100D02*
X67640000Y-104100000D01*
%TO.N,RW*%
X74795900Y-110257500D02*
X74211200Y-109672800D01*
X37313000Y-135956000D02*
X37313000Y-139564500D01*
X71217900Y-129493500D02*
X72481400Y-128230000D01*
X74211200Y-107688800D02*
X75260000Y-106640000D01*
X38500000Y-135136700D02*
X38132300Y-135136700D01*
X75317900Y-110257500D02*
X74795900Y-110257500D01*
X37313000Y-139564500D02*
X37979600Y-140231100D01*
X75009700Y-125690000D02*
X75492200Y-125690000D01*
X73990000Y-126709700D02*
X75009700Y-125690000D01*
X76757000Y-124425200D02*
X76757000Y-111696600D01*
X38500000Y-133960000D02*
X38500000Y-135136700D01*
X37979600Y-140231100D02*
X60999000Y-140231100D01*
X76757000Y-111696600D02*
X75317900Y-110257500D01*
X60999000Y-140231100D02*
X71217900Y-130012200D01*
X73990000Y-127210400D02*
X73990000Y-126709700D01*
X74211200Y-109672800D02*
X74211200Y-107688800D01*
X72970400Y-128230000D02*
X73990000Y-127210400D01*
X38132300Y-135136700D02*
X37313000Y-135956000D01*
X72481400Y-128230000D02*
X72970400Y-128230000D01*
X71217900Y-130012200D02*
X71217900Y-129493500D01*
X75492200Y-125690000D02*
X76757000Y-124425200D01*
%TO.N,CPUCLK*%
X38182200Y-64016700D02*
X37307300Y-64891600D01*
X39863300Y-62840000D02*
X39863300Y-63207800D01*
X37307300Y-88756300D02*
X37976800Y-89425800D01*
X39863300Y-63207800D02*
X39054400Y-64016700D01*
X55020000Y-85783300D02*
X53843300Y-85783300D01*
X37307300Y-64891600D02*
X37307300Y-88756300D01*
X37976800Y-89425800D02*
X50200800Y-89425800D01*
X39054400Y-64016700D02*
X38182200Y-64016700D01*
X50200800Y-89425800D02*
X53843300Y-85783300D01*
X41040000Y-62840000D02*
X39863300Y-62840000D01*
%TO.N,Net-(J1-Pin_3)*%
X56196700Y-90863300D02*
X58913400Y-93580000D01*
X58913400Y-93580000D02*
X63000000Y-93580000D01*
X55020000Y-90863300D02*
X56196700Y-90863300D01*
%TO.N,Net-(X1-OUT)*%
X63000000Y-83420000D02*
X64578400Y-84998400D01*
X72018400Y-84998400D02*
X77830000Y-90810000D01*
X64578400Y-84998400D02*
X72018400Y-84998400D01*
%TO.N,UDS*%
X76840300Y-74961600D02*
X78353300Y-73448600D01*
X42216700Y-100940000D02*
X53563400Y-89593300D01*
X53563400Y-89593300D02*
X55432300Y-89593300D01*
X78353300Y-67873400D02*
X79480000Y-66746700D01*
X60725300Y-84300300D02*
X60725300Y-84094800D01*
X68138800Y-82293300D02*
X75470500Y-74961600D01*
X60725300Y-84094800D02*
X62526800Y-82293300D01*
X75470500Y-74961600D02*
X76840300Y-74961600D01*
X79480000Y-65220000D02*
X79480000Y-66746700D01*
X62526800Y-82293300D02*
X68138800Y-82293300D01*
X41040000Y-100940000D02*
X42216700Y-100940000D01*
X78353300Y-73448600D02*
X78353300Y-67873400D01*
X55432300Y-89593300D02*
X60725300Y-84300300D01*
%TO.N,AS*%
X48021800Y-120434800D02*
X55592600Y-120434800D01*
X39676700Y-118720000D02*
X39676700Y-118352200D01*
X40485600Y-117543300D02*
X45130300Y-117543300D01*
X38500000Y-118720000D02*
X39676700Y-118720000D01*
X61767400Y-114260000D02*
X75260000Y-114260000D01*
X55592600Y-120434800D02*
X61767400Y-114260000D01*
X39676700Y-118352200D02*
X40485600Y-117543300D01*
X45130300Y-117543300D02*
X48021800Y-120434800D01*
%TO.N,LDS*%
X57119300Y-87053300D02*
X53563400Y-87053300D01*
X76940000Y-66746700D02*
X75675400Y-68011300D01*
X75675400Y-68011300D02*
X75675400Y-73573600D01*
X62537100Y-81635500D02*
X57119300Y-87053300D01*
X41040000Y-98400000D02*
X42216700Y-98400000D01*
X76940000Y-65220000D02*
X76940000Y-66746700D01*
X53563400Y-87053300D02*
X42216700Y-98400000D01*
X67613500Y-81635500D02*
X62537100Y-81635500D01*
X75675400Y-73573600D02*
X67613500Y-81635500D01*
%TO.N,CPUFC2*%
X73012100Y-64367300D02*
X73012100Y-73684600D01*
X72338100Y-63693300D02*
X73012100Y-64367300D01*
X73012100Y-73684600D02*
X65657200Y-81039500D01*
X69320000Y-65220000D02*
X69320000Y-63693300D01*
X49615900Y-88240000D02*
X42216700Y-88240000D01*
X41040000Y-88240000D02*
X42216700Y-88240000D01*
X56816400Y-81039500D02*
X49615900Y-88240000D01*
X65657200Y-81039500D02*
X56816400Y-81039500D01*
X69320000Y-63693300D02*
X72338100Y-63693300D01*
%TO.N,CPUFC1*%
X56515500Y-79984500D02*
X50800000Y-85700000D01*
X50800000Y-85700000D02*
X41040000Y-85700000D01*
X64173400Y-79984500D02*
X56515500Y-79984500D01*
X71860000Y-65220000D02*
X71860000Y-66746700D01*
X70590000Y-73567900D02*
X64173400Y-79984500D01*
X70590000Y-68016700D02*
X70590000Y-73567900D01*
X71860000Y-66746700D02*
X70590000Y-68016700D01*
%TO.N,RESET*%
X75084000Y-113074900D02*
X75572400Y-113074900D01*
X75572400Y-113074900D02*
X76298600Y-113801100D01*
X41040000Y-103480000D02*
X42216700Y-103480000D01*
X68910000Y-106900900D02*
X75084000Y-113074900D01*
X67082700Y-102070900D02*
X68910000Y-103898200D01*
X76298600Y-113801100D02*
X76298600Y-123381400D01*
X68910000Y-103898200D02*
X68910000Y-106900900D01*
X42216700Y-103480000D02*
X43625800Y-102070900D01*
X43625800Y-102070900D02*
X67082700Y-102070900D01*
X76298600Y-123381400D02*
X75260000Y-124420000D01*
%TO.N,DTACK*%
X70180000Y-106640000D02*
X71221700Y-105598300D01*
X69151800Y-101596500D02*
X42222300Y-101596500D01*
X71221700Y-105598300D02*
X71221700Y-103666400D01*
X38500000Y-131420000D02*
X38500000Y-130243300D01*
X71221700Y-103666400D02*
X69151800Y-101596500D01*
X38075800Y-114910000D02*
X36806600Y-116179200D01*
X39770000Y-114115500D02*
X38975500Y-114910000D01*
X40609200Y-102210000D02*
X39770000Y-103049200D01*
X38132300Y-130243300D02*
X38500000Y-130243300D01*
X41608800Y-102210000D02*
X40609200Y-102210000D01*
X39770000Y-103049200D02*
X39770000Y-114115500D01*
X42222300Y-101596500D02*
X41608800Y-102210000D01*
X38975500Y-114910000D02*
X38075800Y-114910000D01*
X36806600Y-128917600D02*
X38132300Y-130243300D01*
X36806600Y-116179200D02*
X36806600Y-128917600D01*
%TO.N,D3*%
X58750000Y-129755600D02*
X58750000Y-129287400D01*
X57925600Y-130580000D02*
X58750000Y-129755600D01*
X49947600Y-130580000D02*
X57925600Y-130580000D01*
X59807400Y-128230000D02*
X61290000Y-128230000D01*
X58750000Y-129287400D02*
X59807400Y-128230000D01*
X61290000Y-128230000D02*
X62560000Y-126960000D01*
%TO.N,D4*%
X45107000Y-131708400D02*
X42855400Y-133960000D01*
X41040000Y-133960000D02*
X42216700Y-133960000D01*
X42855400Y-133960000D02*
X42216700Y-133960000D01*
X62560000Y-129500000D02*
X60351600Y-131708400D01*
X60351600Y-131708400D02*
X45107000Y-131708400D01*
%TO.N,D2*%
X42216700Y-139040000D02*
X48445500Y-132811200D01*
X48445500Y-132811200D02*
X61389900Y-132811200D01*
X65100000Y-129500000D02*
X64062100Y-129500000D01*
X64062100Y-130139000D02*
X64062100Y-129500000D01*
X61389900Y-132811200D02*
X64062100Y-130139000D01*
X41040000Y-139040000D02*
X42216700Y-139040000D01*
%TD*%
M02*
