M48
; DRILL file {KiCad 8.0.0} date 2024-03-03T08:39:44-0500
; FORMAT={-:-/ absolute / inch / decimal}
; #@! TF.CreationDate,2024-03-03T08:39:44-05:00
; #@! TF.GenerationSoftware,Kicad,Pcbnew,8.0.0
; #@! TF.FileFunction,Plated,1,4,PTH
FMAT,2
INCH
; #@! TA.AperFunction,Plated,PTH,ViaDrill
T1C0.0118
; #@! TA.AperFunction,Plated,PTH,ComponentDrill
T2C0.0315
; #@! TA.AperFunction,Plated,PTH,ComponentDrill
T3C0.0394
%
G90
G05
T1
X1.7221Y-3.1004
X1.7584Y-4.3761
X1.782Y-3.208
X1.9664Y-5.1409
X1.9966Y-4.3389
X2.113Y-4.6455
X2.1724Y-2.8132
X2.2584Y-2.8045
X2.4218Y-4.5548
T2
X1.811Y-4.498
X1.811Y-4.5965
X1.8476Y-2.3081
X1.8476Y-2.4065
X2.0291Y-2.5677
X2.0291Y-2.8677
X2.063Y-4.1984
X2.063Y-4.2984
X2.063Y-4.3984
X2.063Y-4.4984
X2.063Y-4.5984
X2.063Y-4.6984
X2.063Y-4.7984
X2.063Y-4.8984
X2.063Y-4.9984
X2.1291Y-2.5677
X2.1291Y-2.8677
X2.1555Y-3.8189
X2.163Y-4.0984
X2.163Y-4.1984
X2.163Y-4.2984
X2.163Y-4.3984
X2.163Y-4.4984
X2.163Y-4.5984
X2.163Y-4.6984
X2.163Y-4.7984
X2.163Y-4.8984
X2.163Y-4.9984
X2.163Y-5.0984
X2.1752Y-5.3543
X2.2291Y-2.5677
X2.2291Y-2.8677
X2.2539Y-3.8189
X2.263Y-4.0984
X2.263Y-4.1984
X2.263Y-4.9984
X2.263Y-5.0984
X2.2736Y-5.3543
X2.3291Y-2.5677
X2.3291Y-2.8677
X2.363Y-4.0984
X2.363Y-4.1984
X2.363Y-4.9984
X2.363Y-5.0984
X2.4291Y-2.5677
X2.4291Y-2.8677
X2.463Y-4.0984
X2.463Y-4.1984
X2.463Y-4.9984
X2.463Y-5.0984
X2.4803Y-3.2843
X2.4803Y-3.6843
X2.5291Y-2.5677
X2.5291Y-2.8677
X2.563Y-4.0984
X2.563Y-4.1984
X2.563Y-4.9984
X2.563Y-5.0984
X2.6291Y-2.5677
X2.6291Y-2.8677
X2.663Y-4.0984
X2.663Y-4.1984
X2.663Y-4.9984
X2.663Y-5.0984
X2.7291Y-2.5677
X2.7291Y-2.8677
X2.763Y-4.0984
X2.763Y-4.1984
X2.763Y-4.9984
X2.763Y-5.0984
X2.8291Y-2.5677
X2.8291Y-2.8677
X2.863Y-4.0984
X2.863Y-4.1984
X2.863Y-4.9984
X2.863Y-5.0984
X2.9291Y-2.5677
X2.9291Y-2.8677
X2.9626Y-3.8386
X2.963Y-4.0984
X2.963Y-4.1984
X2.963Y-4.2984
X2.963Y-4.3984
X2.963Y-4.4984
X2.963Y-4.5984
X2.963Y-4.6984
X2.963Y-4.7984
X2.963Y-4.8984
X2.963Y-4.9984
X2.963Y-5.0984
X2.9732Y-3.0512
X3.0291Y-2.5677
X3.0291Y-2.8677
X3.061Y-3.8386
X3.063Y-4.1984
X3.063Y-4.2984
X3.063Y-4.3984
X3.063Y-4.4984
X3.063Y-4.5984
X3.063Y-4.6984
X3.063Y-4.7984
X3.063Y-4.8984
X3.063Y-4.9984
X3.0717Y-3.0512
X3.1291Y-2.5677
X3.1291Y-2.8677
X3.3071Y-2.6673
X3.3071Y-2.7657
X3.3268Y-4.4783
X3.3268Y-4.5768
X3.3268Y-4.6949
X3.3268Y-4.7933
X3.3268Y-4.9114
X3.3268Y-5.0098
T3
X1.5157Y-2.374
X1.5157Y-2.474
X1.5157Y-2.574
X1.5157Y-2.674
X1.5157Y-2.774
X1.5157Y-2.874
X1.5157Y-2.974
X1.5157Y-3.074
X1.5157Y-3.174
X1.5157Y-3.274
X1.5157Y-3.374
X1.5157Y-3.474
X1.5157Y-3.574
X1.5157Y-3.674
X1.5157Y-3.774
X1.5157Y-3.874
X1.5157Y-3.974
X1.5157Y-4.074
X1.5157Y-4.174
X1.5157Y-4.274
X1.5157Y-4.374
X1.5157Y-4.474
X1.5157Y-4.574
X1.5157Y-4.674
X1.5157Y-4.774
X1.5157Y-4.874
X1.5157Y-4.974
X1.5157Y-5.074
X1.5157Y-5.174
X1.5157Y-5.274
X1.5157Y-5.374
X1.5157Y-5.474
X1.6157Y-2.374
X1.6157Y-2.474
X1.6157Y-2.574
X1.6157Y-2.674
X1.6157Y-2.774
X1.6157Y-2.874
X1.6157Y-2.974
X1.6157Y-3.074
X1.6157Y-3.174
X1.6157Y-3.274
X1.6157Y-3.374
X1.6157Y-3.474
X1.6157Y-3.574
X1.6157Y-3.674
X1.6157Y-3.774
X1.6157Y-3.874
X1.6157Y-3.974
X1.6157Y-4.074
X1.6157Y-4.174
X1.6157Y-4.274
X1.6157Y-4.374
X1.6157Y-4.474
X1.6157Y-4.574
X1.6157Y-4.674
X1.6157Y-4.774
X1.6157Y-4.874
X1.6157Y-4.974
X1.6157Y-5.074
X1.6157Y-5.174
X1.6157Y-5.274
X1.6157Y-5.374
X1.6157Y-5.474
X2.1661Y-3.3773
X2.1661Y-3.4773
X2.1661Y-3.5773
X2.7642Y-3.2752
X2.7642Y-3.5752
X3.0642Y-3.2752
X3.0642Y-3.5752
M30
